<svg xmlns="http://www.w3.org/2000/svg" xmlns:xlink="http://www.w3.org/1999/xlink" viewBox="0 0 512 512" width="512" height="512" style="width: 100%; height: 100%; transform: translate3d(0px, 0px, 0px);" preserveAspectRatio="xMidYMid meet"><defs><clipPath id="__lottie_element_63"><rect width="512" height="512" x="0" y="0"></rect></clipPath></defs><g clip-path="url(#__lottie_element_63)"><g style="display: block;" transform="matrix(2.5739998817443848,0,0,2.5739998817443848,-94.623046875,-333.2341613769531)" opacity="1"><g opacity="1" transform="matrix(1,0,0,1,177.20399475097656,289.7040100097656)"><path fill="rgb(230,153,231)" fill-opacity="1" d=" M31.364999771118164,-13.23799991607666 C15.263999938964844,-17.773000717163086 -2.877000093460083,-13.605999946594238 -19.1200008392334,-10.628999710083008 C-23.797000885009766,-9.779999732971191 -33.83100128173828,-8.390000343322754 -37.262001037597656,-4.9039998054504395 C-47.58000183105469,5.61299991607666 -57.49800109863281,7.783999919891357 -61.30400085449219,17.190000534057617 C-53.41899871826172,27.79199981689453 44.54999923706055,26.238000869750977 51.85200119018555,17.108999252319336 C51.83399963378906,11.378000259399414 51.66999816894531,-0.18000000715255737 51.6150016784668,-5.716000080108643 C48.512001037597656,-9.378000259399414 36.43899917602539,-12.5 31.364999771118164,-13.23799991607666z"></path></g><g opacity="1" transform="matrix(1,0,0,1,177.20399475097656,289.7040100097656)"><path fill="rgb(209,112,210)" fill-opacity="1" d=" M31.364999771118164,-13.23799991607666 C23.643999099731445,-15.413000106811523 11.848999977111816,-4.8420000076293945 9.17300033569336,-5.914000034332275 C9.906999588012695,1.569000005722046 10.295000076293945,11.281000137329102 9.180000305175781,23.799999237060547 C26.61199951171875,25.267000198364258 47.590999603271484,20.410999298095703 51.85200119018555,17.108999252319336 C51.83399963378906,11.378000259399414 51.66999816894531,-0.18000000715255737 51.6150016784668,-5.716000080108643 C48.512001037597656,-9.378000259399414 36.43899917602539,-12.5 31.364999771118164,-13.23799991607666z"></path></g><g opacity="1" transform="matrix(1,0,0,1,177.20399475097656,289.7040100097656)"><path stroke-linecap="round" stroke-linejoin="miter" fill-opacity="0" stroke-miterlimit="10" stroke="rgb(151,54,152)" stroke-opacity="1" stroke-width="3" d=" M-61.30400085449219,17.190000534057617 C-57.11000061035156,7.201000213623047 -47.58000183105469,5.61299991607666 -37.262001037597656,-4.9039998054504395 C-33.83100128173828,-8.390000343322754 -23.797000885009766,-9.779999732971191 -19.1200008392334,-10.628999710083008 C-2.877000093460083,-13.605999946594238 15.263999938964844,-17.773000717163086 31.364999771118164,-13.23799991607666 C36.43899917602539,-12.5 44.28799819946289,-8.920999526977539 51.22600173950195,-5.909999847412109"></path></g></g><g style="display: block;" transform="matrix(2.5739998817443848,0,0,2.5739998817443848,-94.62420654296875,-333.2330627441406)" opacity="1"><g opacity="1" transform="matrix(1,0,0,1,172.05999755859375,282.41900634765625)"><path fill="rgb(22,188,77)" fill-opacity="1" d=" M-35.6879997253418,-1.503000020980835 C-39.685001373291016,-0.8790000081062317 -40.50699996948242,4.223999977111816 -33.534000396728516,7.284999847412109 C-20.72100067138672,12.869000434875488 1.3320000171661377,12.217000007629395 14.17300033569336,8.135000228881836 C21.770000457763672,5.697000026702881 40.50699996948242,-2.3239998817443848 38.15399932861328,-10.204999923706055 C37.388999938964844,-12.869000434875488 33.41999816894531,-12.784000396728516 32.14500045776367,-12.444000244140625 C30.698999404907227,-12.020000457763672 -29.53700065612793,-2.4670000076293945 -35.6879997253418,-1.503000020980835z"></path></g><g opacity="1" transform="matrix(1,0,0,1,172.05999755859375,282.41900634765625)"><path fill="rgb(17,163,65)" fill-opacity="1" d=" M11.144000053405762,1.4570000171661377 C15.4399995803833,2.8310000896453857 15.4399995803833,4.9679999351501465 14.17300033569336,8.135000228881836 C21.770000457763672,5.697000026702881 40.50699996948242,-2.3239998817443848 38.15399932861328,-10.204999923706055 C37.388999938964844,-12.869000434875488 33.41999816894531,-12.784000396728516 32.14500045776367,-12.444000244140625 C30.698999404907227,-12.020000457763672 3.890000104904175,-0.8619999885559082 11.144000053405762,1.4570000171661377z"></path></g><g opacity="1" transform="matrix(1,0,0,1,172.05999755859375,282.41900634765625)"><path stroke-linecap="round" stroke-linejoin="miter" fill-opacity="0" stroke-miterlimit="10" stroke="rgb(7,109,41)" stroke-opacity="1" stroke-width="3" d=" M-35.6879997253418,-1.503000020980835 C-39.685001373291016,-0.8790000081062317 -40.50699996948242,4.223999977111816 -33.534000396728516,7.284999847412109 C-20.72100067138672,12.869000434875488 1.3320000171661377,12.217000007629395 14.17300033569336,8.135000228881836 C21.770000457763672,5.697000026702881 40.50699996948242,-2.3239998817443848 38.15399932861328,-10.204999923706055 C37.388999938964844,-12.869000434875488 33.41999816894531,-12.784000396728516 32.14500045776367,-12.444000244140625 C30.698999404907227,-12.020000457763672 -29.53700065612793,-2.4670000076293945 -35.6879997253418,-1.503000020980835z"></path></g></g><g style="display: block;" transform="matrix(2.487545967102051,-0.9783737063407898,0.9783737063407898,2.487545967102051,-1134.1683349609375,-531.3522338867188)" opacity="1"><g opacity="1" transform="matrix(1,0,0,1,338.8970031738281,397.7669982910156)"><path fill="rgb(61,169,214)" fill-opacity="1" d=" M-14.881999969482422,17.22100067138672 C-5.730000019073486,14.734000205993652 -6.513000011444092,9.991999626159668 -5.520999908447266,6.109000205993652 C-4.698999881744385,2.821000099182129 -2.419802188873291,-2.5851058959960938 -1.1428022384643555,-3.9731059074401855 C0.5281977653503418,-5.7881059646606445 3.3065857887268066,-8.593733787536621 6.5377702713012695,-9.97041130065918 C13.633971214294434,-13.011030197143555 10.662483215332031,-18.447010040283203 3.477753162384033,-16.818920135498047 C-3.1395914554595947,-15.707023620605469 -6.9798264503479,-9.982678413391113 -9.504826545715332,-4.946678638458252"></path><path stroke-linecap="round" stroke-linejoin="round" fill-opacity="0" stroke="rgb(23,105,140)" stroke-opacity="1" stroke-width="2.5" d=" M-14.881999969482422,17.22100067138672 C-5.730000019073486,14.734000205993652 -6.513000011444092,9.991999626159668 -5.520999908447266,6.109000205993652 C-4.698999881744385,2.821000099182129 -2.419802188873291,-2.5851058959960938 -1.1428022384643555,-3.9731059074401855 C0.5281977653503418,-5.7881059646606445 3.3065857887268066,-8.593733787536621 6.5377702713012695,-9.97041130065918 C13.633971214294434,-13.011030197143555 10.662483215332031,-18.447010040283203 3.477753162384033,-16.818920135498047 C-3.1395914554595947,-15.707023620605469 -6.9798264503479,-9.982678413391113 -9.504826545715332,-4.946678638458252"></path></g></g><g style="display: block;" transform="matrix(2.5740160942077637,-0.008716153912246227,0.008716153912246227,2.5740160942077637,-97.13449096679688,-331.8009948730469)" opacity="1"><g opacity="1" transform="matrix(1,0,0,1,120.56800079345703,209.38400268554688)"><path fill="rgb(49,32,177)" fill-opacity="1" d=" M-23.173999786376953,8.234000205993652 C-17.107999801635742,2.0829999446868896 5.059000015258789,-10.048999786376953 14.130000114440918,-12.26099967956543 C16.426000595092773,-12.82800006866455 18.892000198364258,-12.996999740600586 20.08300018310547,-11.12600040435791 C20.961000442504883,-9.73799991607666 22.80500030517578,-6.109000205993652 23.17300033569336,-4.635000228881836 C23.429000854492188,-3.5859999656677246 21.047000885009766,-2.0260000228881836 20.395000457763672,-3.4719998836517334 C19.204999923706055,-6.335000038146973 17.929000854492188,-10.616000175476074 14.442000389099121,-9.255999565124512 C3.6989998817443848,-5.089000225067139 -10.5600004196167,2.9049999713897705 -20.19700050354004,11.35200023651123 C-22.069000244140625,12.996000289916992 -23.429000854492188,8.48900032043457 -23.173999786376953,8.234000205993652z"></path><path stroke-linecap="round" stroke-linejoin="miter" fill-opacity="0" stroke-miterlimit="10" stroke="rgb(15,2,114)" stroke-opacity="1" stroke-width="2.5" d=" M-23.173999786376953,8.234000205993652 C-17.107999801635742,2.0829999446868896 5.059000015258789,-10.048999786376953 14.130000114440918,-12.26099967956543 C16.426000595092773,-12.82800006866455 18.892000198364258,-12.996999740600586 20.08300018310547,-11.12600040435791 C20.961000442504883,-9.73799991607666 22.80500030517578,-6.109000205993652 23.17300033569336,-4.635000228881836 C23.429000854492188,-3.5859999656677246 21.047000885009766,-2.0260000228881836 20.395000457763672,-3.4719998836517334 C19.204999923706055,-6.335000038146973 17.929000854492188,-10.616000175476074 14.442000389099121,-9.255999565124512 C3.6989998817443848,-5.089000225067139 -10.5600004196167,2.9049999713897705 -20.19700050354004,11.35200023651123 C-22.069000244140625,12.996000289916992 -23.429000854492188,8.48900032043457 -23.173999786376953,8.234000205993652z"></path></g></g><g style="display: block;" transform="matrix(2.5739850997924805,-0.008716048672795296,0.008716048672795296,2.5739850997924805,-97.13006591796875,-331.79083251953125)" opacity="1"><g opacity="1" transform="matrix(1,0,0,1,122.06999969482422,200.8090057373047)"><path fill="rgb(61,169,214)" fill-opacity="1" d=" M14.329000473022461,6.348999977111816 C14.357000350952148,1.9839999675750732 12.741999626159668,-4.534999847412109 11.918999671936035,-7.198999881744385 C7.099999904632568,-22.648000717163086 -14.357999801635742,-10.545000076293945 -8.77400016784668,-1.9559999704360962 C-5.428999900817871,3.2309999465942383 -4.436999797821045,11.083999633789062 -4.267000198364258,15.420999526977539 C-3.9830000400543213,22.64900016784668 14.300999641418457,15.449000358581543 14.329000473022461,6.348999977111816z"></path><path stroke-linecap="round" stroke-linejoin="miter" fill-opacity="0" stroke-miterlimit="10" stroke="rgb(23,105,140)" stroke-opacity="1" stroke-width="3" d=" M14.329000473022461,6.348999977111816 C14.357000350952148,1.9839999675750732 12.741999626159668,-4.534999847412109 11.918999671936035,-7.198999881744385 C7.099999904632568,-22.648000717163086 -14.357999801635742,-10.545000076293945 -8.77400016784668,-1.9559999704360962 C-5.428999900817871,3.2309999465942383 -4.436999797821045,11.083999633789062 -4.267000198364258,15.420999526977539 C-3.9830000400543213,22.64900016784668 14.300999641418457,15.449000358581543 14.329000473022461,6.348999977111816z"></path></g></g><g style="display: block;" transform="matrix(2.5739850997924805,-0.008716048672795296,0.008716048672795296,2.5739850997924805,-97.13006591796875,-331.79083251953125)" opacity="1"><g opacity="1" transform="matrix(1,0,0,1,164.29299926757812,249.08299255371094)"><path fill="rgb(61,169,214)" fill-opacity="1" d=" M22.450000762939453,-45.8650016784668 C8.871999740600586,-46.14899826049805 -9.864999771118164,-46.090999603271484 -22.649999618530273,-45.297000885009766 C-33.30799865722656,-44.67399978637695 -40.875999450683594,-40.222999572753906 -44.75899887084961,-36.14099884033203 C-51.50600051879883,-29.025999069213867 -51.47800064086914,-23.781999588012695 -49.749000549316406,-13.520999908447266 C-49.209999084472656,-10.26099967956543 -49.65700149536133,-3.0910000801086426 -51.86800003051758,0.42399999499320984 C-51.75400161743164,4.0320000648498535 -51.5629997253418,12.076000213623047 -48.472999572753906,14.541999816894531 C-44.53300094604492,17.68899917602539 -32.25899887084961,29.878000259399414 -28.659000396728516,33.393001556396484 C-21.996999740600586,40.16699981689453 25.680999755859375,46.14799880981445 42.0369987487793,22.479000091552734 C42.91600036621094,19.672000885009766 41.29999923706055,16.582000732421875 43.823001861572266,13.520999908447266 C49.861000061035156,6.206999778747559 52.35499954223633,-5.724999904632568 53.09299850463867,-15.25 C54.90700149536133,-39.117000579833984 43.680999755859375,-45.439998626708984 22.450000762939453,-45.8650016784668z"></path></g><g opacity="1" transform="matrix(1,0,0,1,164.29299926757812,249.08299255371094)"><path fill="rgb(26,140,187)" fill-opacity="1" d=" M36.625,-44.08300018310547 C40.18600082397461,-37.66299819946289 41.60499954223633,-7.807000160217285 31.72599983215332,11.597000122070312 C25.052000045776367,24.70599937438965 20.097999572753906,33.54499816894531 15.151000022888184,38.05099868774414 C25.246000289916992,35.680999755859375 34.66699981689453,32.08700180053711 42.0369987487793,22.479000091552734 C42.91600036621094,19.672000885009766 41.29999923706055,16.582000732421875 43.823001861572266,13.520999908447266 C49.861000061035156,6.206999778747559 52.35499954223633,-5.724999904632568 53.09299850463867,-15.25 C54.90700149536133,-39.117000579833984 43.79199981689453,-42.104000091552734 36.625,-44.08300018310547z"></path></g><g opacity="1" transform="matrix(1,0,0,1,164.29299926757812,249.08299255371094)"><path stroke-linecap="round" stroke-linejoin="miter" fill-opacity="0" stroke-miterlimit="10" stroke="rgb(23,105,140)" stroke-opacity="1" stroke-width="3" d=" M22.450000762939453,-45.8650016784668 C8.871999740600586,-46.14899826049805 -9.864999771118164,-46.090999603271484 -22.649999618530273,-45.297000885009766 C-33.30799865722656,-44.67399978637695 -40.875999450683594,-40.222999572753906 -44.75899887084961,-36.14099884033203 C-51.50600051879883,-29.025999069213867 -51.47800064086914,-23.781999588012695 -49.749000549316406,-13.520999908447266 C-49.209999084472656,-10.26099967956543 -49.65700149536133,-3.0910000801086426 -51.86800003051758,0.42399999499320984 C-51.75400161743164,4.0320000648498535 -51.5629997253418,12.076000213623047 -48.472999572753906,14.541999816894531 C-44.53300094604492,17.68899917602539 -32.25899887084961,29.878000259399414 -28.659000396728516,33.393001556396484 C-21.996999740600586,40.16699981689453 25.680999755859375,46.14799880981445 42.0369987487793,22.479000091552734 C42.91600036621094,19.672000885009766 41.29999923706055,16.582000732421875 43.823001861572266,13.520999908447266 C49.861000061035156,6.206999778747559 52.35499954223633,-5.724999904632568 53.09299850463867,-15.25 C54.90700149536133,-39.117000579833984 43.680999755859375,-45.439998626708984 22.450000762939453,-45.8650016784668z"></path></g></g><g style="display: block;" transform="matrix(2.5739850997924805,-0.008716048672795296,0.008716048672795296,2.5739850997924805,-97.13006591796875,-331.79083251953125)" opacity="1"><g opacity="1" transform="matrix(1,0,0,1,148.55999755859375,256.97698974609375)"><path fill="rgb(252,108,182)" fill-opacity="1" d=" M-38.15599822998047,-0.5519999861717224 C-41.597999572753906,4.0229997634887695 -38.04499816894531,7.284999847412109 -30.464000701904297,8.1899995803833 C-17.849000930786133,9.696000099182129 17.17426872253418,11.239487648010254 34.78901672363281,2.849308967590332 C38.314186096191406,1.1768280267715454 41.703399658203125,-1.8638315200805664 40.12534713745117,-6.48936128616333 C38.805198669433594,-10.341687202453613 34.30281448364258,-10.467226028442383 30.196487426757812,-9.127793312072754 C12.961339950561523,-3.499519109725952 -0.6370000243186951,-3.4769999980926514 -11.934000015258789,-3.244999885559082 C-20.06800079345703,-3.078000068664551 -30.500999450683594,-5.427000045776367 -35.858001708984375,-7.497000217437744 C-41.698001861572266,-8.119999885559082 -42.095001220703125,-1.2039999961853027 -38.125999450683594,-0.43799999356269836 C-30.636999130249023,2.0999999046325684 -18.719999313354492,2.507999897003174 -15.71500015258789,2.552000045776367 C6.093999862670898,2.86899995803833 20.957307815551758,0.6233239769935608 32.956932067871094,-3.4682486057281494"></path><path stroke-linecap="round" stroke-linejoin="round" fill-opacity="0" stroke="rgb(172,28,102)" stroke-opacity="1" stroke-width="3" d=" M-38.15599822998047,-0.5519999861717224 C-41.597999572753906,4.0229997634887695 -38.04499816894531,7.284999847412109 -30.464000701904297,8.1899995803833 C-17.849000930786133,9.696000099182129 17.17426872253418,11.239487648010254 34.78901672363281,2.849308967590332 C38.314186096191406,1.1768280267715454 41.703399658203125,-1.8638315200805664 40.12534713745117,-6.48936128616333 C38.805198669433594,-10.341687202453613 34.30281448364258,-10.467226028442383 30.196487426757812,-9.127793312072754 C12.961339950561523,-3.499519109725952 -0.6370000243186951,-3.4769999980926514 -11.934000015258789,-3.244999885559082 C-20.06800079345703,-3.078000068664551 -30.500999450683594,-5.427000045776367 -35.858001708984375,-7.497000217437744 C-41.698001861572266,-8.119999885559082 -42.095001220703125,-1.2039999961853027 -38.125999450683594,-0.43799999356269836 C-30.636999130249023,2.0999999046325684 -18.719999313354492,2.507999897003174 -15.71500015258789,2.552000045776367 C6.093999862670898,2.86899995803833 20.957307815551758,0.6233239769935608 32.956932067871094,-3.4682486057281494"></path></g></g><g style="display: block;" transform="matrix(2.5739850997924805,-0.008716048672795296,0.008716048672795296,2.5739850997924805,-97.13006591796875,-331.79083251953125)" opacity="1"><g opacity="1" transform="matrix(1,0,0,1,206.96800231933594,202.04200744628906)"><path fill="rgb(61,169,214)" fill-opacity="1" d=" M1.6299999952316284,-15.463000297546387 C-11.664999961853027,-17.589000701904297 -14.612000465393066,-6.052000045776367 -14.527000427246094,3.444000005722046 C-14.527000427246094,3.444000005722046 8.064000129699707,17.589000701904297 8.064000129699707,17.589000701904297 C14.470999717712402,5.372000217437744 14.612000465393066,-13.364999771118164 1.6299999952316284,-15.463000297546387z"></path></g><g opacity="1" transform="matrix(1,0,0,1,206.96800231933594,202.04200744628906)"><path fill="rgb(26,140,187)" fill-opacity="1" d=" M3.2760000228881836,-14.192999839782715 C8.33899974822998,-12.149999618530273 3.6619999408721924,-8.479999542236328 3.013000011444092,-9.982000350952148 C3.013000011444092,-9.982000350952148 8.064000129699707,17.589000701904297 8.064000129699707,17.589000701904297 C14.470999717712402,5.372000217437744 14.458999633789062,-12.317999839782715 3.2760000228881836,-14.192999839782715z"></path></g><g opacity="1" transform="matrix(1,0,0,1,206.96800231933594,202.04200744628906)"><path stroke-linecap="round" stroke-linejoin="miter" fill-opacity="0" stroke-miterlimit="10" stroke="rgb(23,105,140)" stroke-opacity="1" stroke-width="3" d=" M-14.527000427246094,3.444000005722046 C-14.612000465393066,-6.052000045776367 -11.664999961853027,-17.589000701904297 1.6299999952316284,-15.463000297546387 C14.612000465393066,-13.364999771118164 14.470999717712402,5.372000217437744 8.064000129699707,17.589000701904297"></path></g></g><g style="display: block;" transform="matrix(2.5739850997924805,-0.008716048672795296,0.008716048672795296,2.5739850997924805,-97.13006591796875,-331.79083251953125)" opacity="1"><g opacity="1" transform="matrix(1,0,0,1,206.5709991455078,202.1280059814453)"><path fill="rgb(212,67,142)" fill-opacity="1" d=" M-6.743000030517578,1.815000057220459 C-6.3979997634887695,-14.918000221252441 6.210000038146973,-12.204999923706055 7.605000019073486,-3.385999917984009 C8.692999839782715,3.490000009536743 7.270999908447266,9.651000022888184 6.052000045776367,12.656000137329102"></path><path stroke-linecap="round" stroke-linejoin="miter" fill-opacity="0" stroke-miterlimit="10" stroke="rgb(23,105,140)" stroke-opacity="1" stroke-width="2.5" d=" M-6.743000030517578,1.815000057220459 C-6.3979997634887695,-14.918000221252441 6.210000038146973,-12.204999923706055 7.605000019073486,-3.385999917984009 C8.692999839782715,3.490000009536743 7.270999908447266,9.651000022888184 6.052000045776367,12.656000137329102"></path></g></g><g style="display: block;" transform="matrix(2.5739850997924805,-0.008716048672795296,0.008716048672795296,2.5739850997924805,-97.13006591796875,-331.79083251953125)" opacity="1"><g opacity="1" transform="matrix(1,0,0,1,209.0229949951172,212.17599487304688)"><path fill="rgb(61,169,214)" fill-opacity="1" d=" M-9.102999687194824,-7.966000080108643 C-12.229000091552734,-7.410999774932861 -11.843999862670898,8.345999717712402 3.3399999141693115,8.515000343322754 C9.20199966430664,8.579999923706055 14.01200008392334,1.909999966621399 7.572999954223633,-3.309999942779541 C4.3420000076293945,-5.928999900817871 -5.9770002365112305,-8.520999908447266 -9.102999687194824,-7.966000080108643z"></path></g><g opacity="1" transform="matrix(1,0,0,1,209.0229949951172,212.17599487304688)"><path fill="rgb(26,140,187)" fill-opacity="1" d=" M-9.102999687194824,-7.966000080108643 C10.87600040435791,-7.546000003814697 5.078000068664551,8.534000396728516 -5.51200008392334,6.122000217437744 C10.116999626159668,14.668999671936035 14.01200008392334,1.909999966621399 7.572999954223633,-3.309999942779541 C4.3420000076293945,-5.928999900817871 -5.9770002365112305,-8.520999908447266 -9.102999687194824,-7.966000080108643z"></path></g><g opacity="1" transform="matrix(1,0,0,1,209.0229949951172,212.17599487304688)"><path stroke-linecap="round" stroke-linejoin="miter" fill-opacity="0" stroke-miterlimit="10" stroke="rgb(24,106,141)" stroke-opacity="1" stroke-width="2.5" d=" M-9.102999687194824,-7.966000080108643 C-2.4130001068115234,-8.277999877929688 4.3420000076293945,-5.928999900817871 7.572999954223633,-3.309999942779541 C14.01200008392334,1.909999966621399 9.638999938964844,9.493000030517578 3.6470000743865967,8.881999969482422"></path></g></g><g style="display: block;" transform="matrix(0.279130220413208,2.6584179401397705,-2.6584179401397705,0.279130220413208,804.0897827148438,-924.3809814453125)" opacity="1"><g opacity="1" transform="matrix(1,0,0,1,380.218994140625,191.2050018310547)"><path fill="rgb(61,169,214)" fill-opacity="1" d=" M1.99399995803833,12.295000076293945 C-0.4690000116825104,8.295000076293945 -4.218999862670898,6.545000076293945 -8.218999862670898,-0.8299999833106995 C-12.218999862670898,-8.204999923706055 -5.843999862670898,-12.576000213623047 -2.2190001010894775,-6.203000068664551 C1.406000018119812,0.17000000178813934 1.781000018119812,0.5450000166893005 1.781000018119812,0.5450000166893005 C1.781000018119812,0.5450000166893005 3.3440001010894775,3.8889999389648438 7.781000137329102,8.232999801635742 C10.821999549865723,11.208999633789062 6.9770002365112305,12.013999938964844 4.25600004196167,12.22599983215332 C3.00600004196167,12.322999954223633 1.99399995803833,12.295000076293945 1.99399995803833,12.295000076293945z"></path><path stroke-linecap="round" stroke-linejoin="miter" fill-opacity="0" stroke-miterlimit="10" stroke="rgb(23,105,140)" stroke-opacity="1" stroke-width="2.5" d=" M1.99399995803833,12.295000076293945 C-0.4690000116825104,8.295000076293945 -4.218999862670898,6.545000076293945 -8.218999862670898,-0.8299999833106995 C-12.218999862670898,-8.204999923706055 -5.843999862670898,-12.576000213623047 -2.2190001010894775,-6.203000068664551 C1.406000018119812,0.17000000178813934 1.781000018119812,0.5450000166893005 1.781000018119812,0.5450000166893005 C1.781000018119812,0.5450000166893005 3.3440001010894775,3.8889999389648438 7.781000137329102,8.232999801635742 C10.821999549865723,11.208999633789062 6.9770002365112305,12.013999938964844 4.25600004196167,12.22599983215332 C3.00600004196167,12.322999954223633 1.99399995803833,12.295000076293945 1.99399995803833,12.295000076293945z"></path></g></g><g style="display: block;" transform="matrix(0.9900223016738892,-0.003352421335875988,0.003352421335875988,0.9900223016738892,256.3837585449219,247.74786376953125)" opacity="1"><g opacity="1" transform="matrix(1,0,0,1,-36,20.5)"><path fill="rgb(255,255,255)" fill-opacity="1" d=" M-1.75,-24.25 C18.131999969482422,-24.25 39,-17.75 39,-0.5 C39,17 18.131999969482422,20.75 -1.75,20.75 C-21.631999969482422,20.75 -37.233001708984375,14.538999557495117 -37.75,-2 C-38.25,-18 -21.631999969482422,-24.25 -1.75,-24.25z"></path><path stroke-linecap="butt" stroke-linejoin="miter" fill-opacity="0" stroke-miterlimit="4" stroke="rgb(23,105,140)" stroke-opacity="1" stroke-width="7" d=" M-1.75,-24.25 C18.131999969482422,-24.25 39,-17.75 39,-0.5 C39,17 18.131999969482422,20.75 -1.75,20.75 C-21.631999969482422,20.75 -37.233001708984375,14.538999557495117 -37.75,-2 C-38.25,-18 -21.631999969482422,-24.25 -1.75,-24.25z"></path></g></g><g style="display: block;" transform="matrix(0.990021824836731,-0.0033524197060614824,0.0033524197060614824,0.990021824836731,244.268798828125,251.50167846679688)" opacity="1"><g opacity="1" transform="matrix(1,0,0,1,-27,13.75)"><path fill="rgb(0,0,0)" fill-opacity="1" d=" M0,-20.200000762939453 C11.148380279541016,-20.200000762939453 20.200000762939453,-11.148380279541016 20.200000762939453,0 C20.200000762939453,11.148380279541016 11.148380279541016,20.200000762939453 0,20.200000762939453 C-11.148380279541016,20.200000762939453 -20.200000762939453,11.148380279541016 -20.200000762939453,0 C-20.200000762939453,-11.148380279541016 -11.148380279541016,-20.200000762939453 0,-20.200000762939453z"></path></g><g opacity="1" transform="matrix(1,0,0,1,-34,11.5)"><path fill="rgb(255,255,255)" fill-opacity="1" d=" M0,-4.949999809265137 C2.731904983520508,-4.949999809265137 4.949999809265137,-2.731904983520508 4.949999809265137,0 C4.949999809265137,2.731904983520508 2.731904983520508,4.949999809265137 0,4.949999809265137 C-2.731904983520508,4.949999809265137 -4.949999809265137,2.731904983520508 -4.949999809265137,0 C-4.949999809265137,-2.731904983520508 -2.731904983520508,-4.949999809265137 0,-4.949999809265137z"></path></g></g><g style="display: block;" transform="matrix(0.9900223016738892,-0.003352421335875988,0.003352421335875988,0.9900223016738892,252.9387969970703,253.69972229003906)" opacity="1"><g opacity="1" transform="matrix(1,0,0,1,0,0)"><path fill="rgb(61,169,214)" fill-opacity="1" d=" M-43.75,-22.75 C-58.73099899291992,-21.50200080871582 -66.5,-14.5 -69.75,-6.25 C-78.25,-4 -78,6.5 -73.75,8.5 C-61.75,-0.25 -7,2.5 11.25,11.5 C21.084999084472656,16.350000381469727 10.74899959564209,-27.288000106811523 -43.75,-22.75z"></path></g><g opacity="1" transform="matrix(1,0,0,1,0,0)"><path fill="rgb(26,140,187)" fill-opacity="1" d=" M-4.311999797821045,6.711999893188477 C1.9930000305175781,8.00100040435791 7.632999897003174,9.23799991607666 11.25,11.5 C23.158000946044922,18.948999404907227 22.42099952697754,-4.388999938964844 6.296999931335449,-16.364999771118164 C6.63700008392334,-8.161999702453613 4.785999774932861,5.210000038146973 -4.311999797821045,6.711999893188477z"></path></g><g opacity="1" transform="matrix(1,0,0,1,0,0)"><path stroke-linecap="round" stroke-linejoin="miter" fill-opacity="0" stroke-miterlimit="4" stroke="rgb(23,105,140)" stroke-opacity="1" stroke-width="8" d=" M-32.141998291015625,-23.253000259399414 C-57.13999938964844,-25.533000946044922 -66.5,-14.5 -69.75,-6.25 C-78.25,-4 -78,6.5 -73.75,8.5 C-61.75,-0.25 -7,2.5 11.25,11.5"></path></g></g><g style="display: block;" transform="matrix(0.9900223016738892,-0.003352421335875988,0.003352421335875988,0.9900223016738892,369.7414855957031,247.364013671875)" opacity="1"><g opacity="1" transform="matrix(1,0,0,1,-36,20.5)"><path fill="rgb(255,255,255)" fill-opacity="1" d=" M-1.75,-24.25 C18.131999969482422,-24.25 39,-17.75 39,-0.5 C39,17 13.881999969482422,21.75 -6,21.75 C-25.881999969482422,21.75 -44.483001708984375,14.288999557495117 -45,-2.25 C-45.5,-18.25 -21.631999969482422,-24.25 -1.75,-24.25z"></path><path stroke-linecap="butt" stroke-linejoin="miter" fill-opacity="0" stroke-miterlimit="4" stroke="rgb(23,105,140)" stroke-opacity="1" stroke-width="7" d=" M-1.75,-24.25 C18.131999969482422,-24.25 39,-17.75 39,-0.5 C39,17 13.881999969482422,21.75 -6,21.75 C-25.881999969482422,21.75 -44.483001708984375,14.288999557495117 -45,-2.25 C-45.5,-18.25 -21.631999969482422,-24.25 -1.75,-24.25z"></path></g></g><g style="display: block;" transform="matrix(0.990021824836731,-0.0033524197060614824,0.0033524197060614824,0.990021824836731,356.1415100097656,251.12286376953125)" opacity="1"><g opacity="1" transform="matrix(1,0,0,1,-27,13.75)"><path fill="rgb(0,0,0)" fill-opacity="1" d=" M0,-20.200000762939453 C11.148380279541016,-20.200000762939453 20.200000762939453,-11.148380279541016 20.200000762939453,0 C20.200000762939453,11.148380279541016 11.148380279541016,20.200000762939453 0,20.200000762939453 C-11.148380279541016,20.200000762939453 -20.200000762939453,11.148380279541016 -20.200000762939453,0 C-20.200000762939453,-11.148380279541016 -11.148380279541016,-20.200000762939453 0,-20.200000762939453z"></path></g><g opacity="1" transform="matrix(1,0,0,1,-34,11.5)"><path fill="rgb(255,255,255)" fill-opacity="1" d=" M0,-4.949999809265137 C2.731904983520508,-4.949999809265137 4.949999809265137,-2.731904983520508 4.949999809265137,0 C4.949999809265137,2.731904983520508 2.731904983520508,4.949999809265137 0,4.949999809265137 C-2.731904983520508,4.949999809265137 -4.949999809265137,2.731904983520508 -4.949999809265137,0 C-4.949999809265137,-2.731904983520508 -2.731904983520508,-4.949999809265137 0,-4.949999809265137z"></path></g></g><g style="display: block;" transform="matrix(0.9900223016738892,-0.003352421335875988,0.003352421335875988,0.9900223016738892,366.2965393066406,253.3158721923828)" opacity="1"><g opacity="1" transform="matrix(1,0,0,1,0,0)"><path fill="rgb(61,169,214)" fill-opacity="1" d=" M-28.5,-22.75 C-43.5,-23.75 -69.25,-25.25 -75.75,-7.25 C-84.25,-5 -84,5.5 -79.75,7.5 C-67.75,-1.25 -7,2.5 11.25,11.5 C19.884000778198242,-8.27299976348877 -13.5,-21.75 -28.5,-22.75z"></path></g><g opacity="1" transform="matrix(1,0,0,1,0,0)"><path fill="rgb(26,140,187)" fill-opacity="1" d=" M-7.390999794006348,6.133999824523926 C0.3720000088214874,7.572999954223633 12.560999870300293,11.17199993133545 16.04800033569336,14.782999992370605 C25.944000244140625,17.485000610351562 17.358999252319336,-13.322999954223633 2.871999979019165,-16.972000122070312 C3.2170000076293945,-10.545999526977539 -1.0750000476837158,4.859000205993652 -7.390999794006348,6.133999824523926z"></path></g><g opacity="1" transform="matrix(1,0,0,1,0,0)"><path stroke-linecap="round" stroke-linejoin="miter" fill-opacity="0" stroke-miterlimit="4" stroke="rgb(23,105,140)" stroke-opacity="1" stroke-width="8" d=" M-60.93899917602539,-20.66699981689453 C-67.64099884033203,-18.4060001373291 -73.18900299072266,-14.340999603271484 -75.75,-7.25 C-84.25,-5 -84,5.5 -79.75,7.5 C-67.75,-1.25 -7,2.5 11.25,11.5"></path></g></g><g style="display: block;" transform="matrix(2.5740160942077637,-0.008716153912246227,0.00871612224727869,2.5740067958831787,-97.13705444335938,-331.799072265625)" opacity="1"><g opacity="1" transform="matrix(1,0,0.0000060003571888955776,1,120.56800079345703,231.99099731445312)"><path fill="rgb(5,0,44)" fill-opacity="0.9500000000000001" d=" M-19.68600082397461,-11.281999588012695 C-20.025999069213867,-3.005000114440918 -15.293000221252441,11.45199966430664 -7.298999786376953,11.281999588012695 C-2.4519999027252197,11.196999549865723 2.9049999713897705,11.3100004196167 8.178000450134277,11.055000305175781 C12.911999702453613,10.82800006866455 16.229000091552734,8.616999626159668 17.22100067138672,4.9039998054504395 C17.844999313354492,2.5230000019073486 19.14699935913086,-2.1010000705718994 19.52899932861328,-4.377999782562256 C19.52899932861328,-4.377999782562256 15.369000434875488,-11.246999740600586 15.369000434875488,-11.246999740600586 C15.369000434875488,-11.246999740600586 -19.68600082397461,-11.281999588012695 -19.68600082397461,-11.281999588012695z"></path></g><g opacity="1" transform="matrix(1,0,0,1,-2.427999973297119,-0.017999999225139618)"><path fill="rgb(255,255,255)" fill-opacity="1" d=" M116.30699920654297,222.02200317382812 C113.68499755859375,226.197998046875 111.22799682617188,231.06100463867188 114.072998046875,233.093994140625 C116.63899993896484,234.927001953125 116.20999908447266,238.24099731445312 113.87899780273438,242.51499938964844 C116.5009994506836,242.51499938964844 117.81199645996094,242.4980010986328 119.07499694824219,242.4980010986328 C121.11499786376953,239.00100708007812 121.98100280761719,234.91700744628906 119.5979995727539,232.36099243164062 C116.05699920654297,228.56300354003906 119.60900115966797,225.31300354003906 122.03700256347656,222.10800170898438 C120.38600158691406,222.10800170898438 117.27799987792969,222.0709991455078 116.30699920654297,222.02200317382812z"></path></g><g opacity="1" transform="matrix(1,0,0,1,6.798999786376953,0.04899999871850014)"><path fill="rgb(255,255,255)" fill-opacity="1" d=" M116.30699920654297,222.02200317382812 C113.68499755859375,226.197998046875 111.13999938964844,229.74000549316406 113.78800201416016,232.21800231933594 C116.08999633789062,234.3730010986328 116.20999908447266,238.24099731445312 113.87899780273438,242.51499938964844 C116.5009994506836,242.51499938964844 115.43299865722656,242.45799255371094 116.69599914550781,242.45799255371094 C118.73600006103516,238.96099853515625 119.60099792480469,234.8780059814453 117.21800231933594,232.32200622558594 C113.677001953125,228.5240020751953 117.2300033569336,225.2729949951172 119.65799713134766,222.0679931640625 C118.00700378417969,222.0679931640625 117.27799987792969,222.0709991455078 116.30699920654297,222.02200317382812z"></path></g><g opacity="1" transform="matrix(1,0,0.0000060003571888955776,1,120.56800079345703,231.99099731445312)"><path stroke-linecap="round" stroke-linejoin="miter" fill-opacity="0" stroke-miterlimit="10" stroke="rgb(9,10,54)" stroke-opacity="0.9500000000000001" stroke-width="3" d=" M-19.68600082397461,-11.281999588012695 C-20.025999069213867,-3.005000114440918 -15.293000221252441,11.45199966430664 -7.298999786376953,11.281999588012695 C-2.4519999027252197,11.196999549865723 2.9049999713897705,11.3100004196167 8.178000450134277,11.055000305175781 C12.911999702453613,10.82800006866455 16.229000091552734,8.616999626159668 17.22100067138672,4.9039998054504395 C17.844999313354492,2.5230000019073486 19.243999481201172,-1.906999945640564 19.52899932861328,-4.377999782562256 C19.52899932861328,-4.377999782562256 15.369000434875488,-11.246999740600586 15.369000434875488,-11.246999740600586 C15.369000434875488,-11.246999740600586 -19.68600082397461,-11.281999588012695 -19.68600082397461,-11.281999588012695z"></path></g></g><g style="display: block;" transform="matrix(2.5740160942077637,-0.008716153912246227,0.00871612224727869,2.5740067958831787,-97.13448333740234,-331.799072265625)" opacity="1"><g opacity="1" transform="matrix(1,0,0.0000060003571888955776,1,167.4390869140625,232.35899353027344)"><path fill="rgb(5,0,44)" fill-opacity="0.9500000000000001" d=" M20.863000869750977,-11.651000022888184 C20.099000930786133,-3.6670000553131104 15.579999923706055,11.621999740600586 6.627999782562256,11.598999977111816 C1.7799999713897705,11.586000442504883 -3.864000082015991,11.717000007629395 -9.13700008392334,11.461999893188477 C-13.871000289916992,11.262999534606934 -17.687999725341797,8.362000465393066 -18.68000030517578,4.6479997634887695 C-19.304000854492188,2.2669999599456787 -20.863000869750977,-2.63700008392334 -19.474000930786133,-4.650000095367432 C-19.474000930786133,-4.650000095367432 -14.541999816894531,-11.819999694824219 -14.541999816894531,-11.819999694824219 C-14.541999816894531,-11.819999694824219 20.863000869750977,-11.651000022888184 20.863000869750977,-11.651000022888184z"></path></g><g opacity="1" transform="matrix(1,0,0,1,44.19300079345703,0.014000000432133675)"><path fill="rgb(255,255,255)" fill-opacity="0.9" d=" M116.30699920654297,222.02200317382812 C113.68499755859375,226.197998046875 111.22799682617188,231.06100463867188 114.072998046875,233.093994140625 C116.63899993896484,234.927001953125 116.20999908447266,238.24099731445312 113.87899780273438,242.51499938964844 C116.5009994506836,242.51499938964844 117.81199645996094,242.4980010986328 119.07499694824219,242.4980010986328 C121.11499786376953,239.00100708007812 121.98100280761719,234.91700744628906 119.5979995727539,232.36099243164062 C116.05699920654297,228.56300354003906 119.60900115966797,225.31300354003906 122.03700256347656,222.10800170898438 C120.38600158691406,222.10800170898438 117.27799987792969,222.0709991455078 116.30699920654297,222.02200317382812z"></path></g><g opacity="1" transform="matrix(1,0,0,1,53.41899871826172,0.08100000023841858)"><path fill="rgb(255,255,255)" fill-opacity="0.9" d=" M116.30699920654297,222.02200317382812 C113.68499755859375,226.197998046875 111.13999938964844,229.74000549316406 113.78800201416016,232.21800231933594 C116.08999633789062,234.3730010986328 116.20999908447266,238.24099731445312 113.87899780273438,242.51499938964844 C116.5009994506836,242.51499938964844 115.43299865722656,242.45799255371094 116.69599914550781,242.45799255371094 C118.73600006103516,238.96099853515625 119.60099792480469,234.8780059814453 117.21800231933594,232.32200622558594 C113.677001953125,228.5240020751953 117.2300033569336,225.2729949951172 119.65799713134766,222.0679931640625 C118.00700378417969,222.0679931640625 117.27799987792969,222.0709991455078 116.30699920654297,222.02200317382812z"></path></g><g opacity="1" transform="matrix(1,0,0.0000060003571888955776,1,167.4390869140625,232.35899353027344)"><path stroke-linecap="round" stroke-linejoin="miter" fill-opacity="0" stroke-miterlimit="10" stroke="rgb(9,10,54)" stroke-opacity="0.9500000000000001" stroke-width="3" d=" M20.863000869750977,-11.651000022888184 C20.099000930786133,-3.6670000553131104 15.579999923706055,11.621999740600586 6.627999782562256,11.598999977111816 C1.7799999713897705,11.586000442504883 -3.864000082015991,11.717000007629395 -9.13700008392334,11.461999893188477 C-13.871000289916992,11.262999534606934 -17.687999725341797,8.362000465393066 -18.68000030517578,4.6479997634887695 C-19.304000854492188,2.2669999599456787 -20.863000869750977,-2.63700008392334 -19.474000930786133,-4.650000095367432 C-19.474000930786133,-4.650000095367432 -14.541999816894531,-11.819999694824219 -14.541999816894531,-11.819999694824219 C-14.541999816894531,-11.819999694824219 20.863000869750977,-11.651000022888184 20.863000869750977,-11.651000022888184z"></path></g></g><g style="display: block;" transform="matrix(2.5740160942077637,-0.008716153912246227,0.008716153912246227,2.5740160942077637,-97.13449096679688,-331.8009948730469)" opacity="1"><g opacity="1" transform="matrix(1,0,0.000004200249804853229,1,144.43600463867188,224.4080047607422)"><path fill="rgb(49,32,177)" fill-opacity="1" d=" M-46.87099838256836,-2.055000066757202 C-48.85499954223633,-2.4240000247955322 -49.50699996948242,-5.994999885559082 -47.125999450683594,-6.816999912261963 C-47.125999450683594,-6.816999912261963 -6.986999988555908,-6.816999912261963 -6.986999988555908,-6.816999912261963 C-5.315000057220459,-6.73199987411499 -4.265999794006348,1.1200000047683716 1.2050000429153442,1.2330000400543213 C8.121000289916992,1.347000002861023 6.959000110626221,-6.874000072479248 10.388999938964844,-6.874000072479248 C10.388999938964844,-6.874000072479248 47.125999450683594,-6.874000072479248 47.125999450683594,-6.874000072479248 C48.7130012512207,-6.789000034332275 49.50699996948242,-3.302000045776367 47.63600158691406,-2.253000020980835 C47.63600158691406,-2.253000020980835 11.692999839782715,-1.7999999523162842 11.692999839782715,-1.7999999523162842 C9.397000312805176,-1.7430000305175781 9.878999710083008,6.874000072479248 -0.41100001335144043,6.761000156402588 C-9.737000465393066,6.61899995803833 -9.567000389099121,-2.111999988555908 -11.663999557495117,-2.055000066757202 C-11.663999557495117,-2.055000066757202 -46.87099838256836,-2.055000066757202 -46.87099838256836,-2.055000066757202z"></path><path stroke-linecap="round" stroke-linejoin="miter" fill-opacity="0" stroke-miterlimit="10" stroke="rgb(15,2,114)" stroke-opacity="1" stroke-width="2.5" d=" M-46.87099838256836,-2.055000066757202 C-48.85499954223633,-2.4240000247955322 -49.50699996948242,-5.994999885559082 -47.125999450683594,-6.816999912261963 C-47.125999450683594,-6.816999912261963 -6.986999988555908,-6.816999912261963 -6.986999988555908,-6.816999912261963 C-5.315000057220459,-6.73199987411499 -4.265999794006348,1.1200000047683716 1.2050000429153442,1.2330000400543213 C8.121000289916992,1.347000002861023 6.959000110626221,-6.874000072479248 10.388999938964844,-6.874000072479248 C10.388999938964844,-6.874000072479248 47.125999450683594,-6.874000072479248 47.125999450683594,-6.874000072479248 C48.7130012512207,-6.789000034332275 49.50699996948242,-3.302000045776367 47.63600158691406,-2.253000020980835 C47.63600158691406,-2.253000020980835 11.692999839782715,-1.7999999523162842 11.692999839782715,-1.7999999523162842 C9.397000312805176,-1.7430000305175781 9.878999710083008,6.874000072479248 -0.41100001335144043,6.761000156402588 C-9.737000465393066,6.61899995803833 -9.567000389099121,-2.111999988555908 -11.663999557495117,-2.055000066757202 C-11.663999557495117,-2.055000066757202 -46.87099838256836,-2.055000066757202 -46.87099838256836,-2.055000066757202z"></path></g></g><g style="display: block;" transform="matrix(2.5740160942077637,-0.008716153912246227,0.008716153912246227,2.5740160942077637,-97.13449096679688,-331.8009948730469)" opacity="1"><g opacity="1" transform="matrix(1,0,0,1,208.15899658203125,211.97799682617188)"><path fill="rgb(49,32,177)" fill-opacity="1" d=" M-16.823999404907227,5.724999904632568 C-10.190999984741211,2.861999988555908 4.973999977111816,-5.642000198364258 12.430000305175781,-9.496999740600586 C14.49899959564209,-10.545999526977539 15.972999572753906,-11.112000465393066 17.191999435424805,-9.213000297546387 C18.070999145507812,-7.823999881744385 17.731000900268555,-3.828000068664551 17.559999465942383,-2.0980000495910645 C17.475000381469727,-1.0490000247955322 14.753999710083008,-0.17100000381469727 14.130999565124512,-1.6169999837875366 C13.932000160217285,-4.507999897003174 15.633000373840332,-7.201000213623047 12.487000465393066,-5.4720001220703125 C2.367000102996826,0.0560000017285347 -5.711999893188477,4.988999843597412 -15.859999656677246,10.005999565124512 C-18.070999145507812,11.112000465393066 -17.163999557495117,5.839000225067139 -16.823999404907227,5.724999904632568z"></path><path stroke-linecap="round" stroke-linejoin="miter" fill-opacity="0" stroke-miterlimit="10" stroke="rgb(15,2,114)" stroke-opacity="1" stroke-width="2.5" d=" M-16.823999404907227,5.724999904632568 C-10.190999984741211,2.861999988555908 4.973999977111816,-5.642000198364258 12.430000305175781,-9.496999740600586 C14.49899959564209,-10.545999526977539 15.972999572753906,-11.112000465393066 17.191999435424805,-9.213000297546387 C18.070999145507812,-7.823999881744385 17.731000900268555,-3.828000068664551 17.559999465942383,-2.0980000495910645 C17.475000381469727,-1.0490000247955322 14.753999710083008,-0.17100000381469727 14.130999565124512,-1.6169999837875366 C13.932000160217285,-4.507999897003174 15.633000373840332,-7.201000213623047 12.487000465393066,-5.4720001220703125 C2.367000102996826,0.0560000017285347 -5.711999893188477,4.988999843597412 -15.859999656677246,10.005999565124512 C-18.070999145507812,11.112000465393066 -17.163999557495117,5.839000225067139 -16.823999404907227,5.724999904632568z"></path></g></g><g style="display: block;" transform="matrix(0.9899781942367554,0.00802694447338581,-0.00802694447338581,0.9899781942367554,254.74542236328125,262.90924072265625)" opacity="1"><g opacity="1" transform="matrix(1,0,0,1,0,0)"><path fill="rgb(61,169,214)" fill-opacity="1" d=" M-205.27499389648438,-61.50299835205078 C-204.52499389648438,-54.50299835205078 -203.48699951171875,-48.09199905395508 -203.1540069580078,-46.374000549316406 C-201.7310028076172,-39.025001525878906 -202.23800659179688,-33.729000091552734 -201.6529998779297,-30.378999710083008 C-200.2779998779297,-22.503999710083008 -200.572998046875,31.226999282836914 -205,88.49700164794922 C-208.5679931640625,134.64599609375 -204,164.01724243164062 -198.5,204.51724243164062 C-196.3300018310547,220.4952392578125 -130.99600219726562,230.55123901367188 -129.5,204.51724243164062 C-127,161.01724243164062 -130.2449951171875,127.90899658203125 -137.98800659179688,93.7699966430664 C-147.25999450683594,52.88600158691406 -151.0399932861328,6.291999816894531 -152.24099731445312,-47.51599884033203 C-152.8800048828125,-76.11799621582031 -206.02499389648438,-68.50299835205078 -205.27499389648438,-61.50299835205078z"></path></g><g opacity="1" transform="matrix(1,0,0,1,0,0)"><path fill="rgb(34,147,193)" fill-opacity="1" d=" M-138.95599365234375,217.0452423095703 C-133.4929962158203,214.50323486328125 -129.84100341796875,210.4462432861328 -129.5,204.51724243164062 C-127,161.01724243164062 -130.2449951171875,127.90899658203125 -137.98800659179688,93.7699966430664 C-147.25999450683594,52.88600158691406 -151.0399932861328,6.291999816894531 -152.24099731445312,-47.51599884033203 C-152.39100646972656,-54.23099899291992 -155.43499755859375,-58.95000076293945 -159.99600219726562,-62.14899826049805 C-160.9149932861328,-62.79399871826172 -157.47999572753906,225.66323852539062 -138.95599365234375,217.0452423095703z"></path></g><g opacity="1" transform="matrix(1,0,0,1,0,0)"><path stroke-linecap="round" stroke-linejoin="miter" fill-opacity="0" stroke-miterlimit="4" stroke="rgb(23,105,140)" stroke-opacity="1" stroke-width="7" d=" M-129.5,204.51724243164062 C-127,161.01724243164062 -130.2449951171875,127.90899658203125 -137.98800659179688,93.7699966430664 C-147.25999450683594,52.88600158691406 -151.0399932861328,6.291999816894531 -152.24099731445312,-47.51599884033203 C-152.8800048828125,-76.11799621582031 -206.02499389648438,-68.50299835205078 -205.27499389648438,-61.50299835205078 C-204.52499389648438,-54.50299835205078 -203.48699951171875,-48.09199905395508 -203.1540069580078,-46.374000549316406 C-201.7310028076172,-39.025001525878906 -202.23800659179688,-33.729000091552734 -201.6529998779297,-30.378999710083008 C-200.2779998779297,-22.503999710083008 -200.572998046875,31.226999282836914 -205,88.49700164794922 C-208.5679931640625,134.64599609375 -204,164.01724243164062 -198.5,204.51724243164062"></path></g><g opacity="0" transform="matrix(1,0,0,1,11.300000190734863,0)"><path stroke-linecap="round" stroke-linejoin="miter" fill-opacity="0" stroke-miterlimit="4" stroke="rgb(23,105,140)" stroke-opacity="1" stroke-width="4" d=" M-170.80299377441406,-38.250999450683594 C-170.80299377441406,-38.250999450683594 -169.1490020751953,-17.76300048828125 -169.1490020751953,-17.76300048828125"></path></g></g><g style="display: block;" transform="matrix(0.8910055160522461,-0.0030238130129873753,0.0030238130129873753,0.8910055160522461,239.274169921875,19.303171157836914)" opacity="1"><g opacity="1" transform="matrix(1,0,0,1,0,0)"><path fill="rgb(61,169,214)" fill-opacity="1" d=" M-184.5,111.75 C-194.5,99.75 -223.966064453125,91.2783432006836 -219.85906982421875,116.80134582519531 C-212.85906982421875,160.3013458251953 -228.52481079101562,174.91195678710938 -213.02481079101562,201.91195678710938 C-206.64381408691406,213.02696228027344 -167.5035400390625,229.90255737304688 -156.2535400390625,222.40255737304688 C-143.64654541015625,213.99855041503906 -143.57289123535156,160.8079376220703 -148.73388671875,149.89093017578125 C-155.23388671875,136.14093017578125 -177.5659942626953,120.07099914550781 -184.5,111.75z"></path></g></g><g style="display: block;" transform="matrix(2.6730165481567383,-0.009071438573300838,0.009071438573300838,2.6730165481567383,-779.7982177734375,-888.5435180664062)" opacity="1"><g opacity="1" transform="matrix(1,0,0,1,307.4880065917969,395.4840087890625)"><path fill="rgb(61,169,214)" fill-opacity="1" d=" M1.7860000133514404,14.626999855041504 C-1.6160000562667847,11.649999618530273 -1.7860000133514404,5.755000114440918 -1.4450000524520874,3.118000030517578 C-1.1339999437332153,0.5109999775886536 -0.746999979019165,-3.9779999256134033 -0.4830000102519989,-7.0289998054504395 C0.012000000104308128,-12.734000205993652 -3.48799991607666,-17.733999252319336 0.17299999296665192,-20.209999084472656"></path><path stroke-linecap="round" stroke-linejoin="round" fill-opacity="0" stroke="rgb(23,105,140)" stroke-opacity="1" stroke-width="2.5" d=" M1.7860000133514404,14.626999855041504 C-1.6160000562667847,11.649999618530273 -1.7860000133514404,5.755000114440918 -1.4450000524520874,3.118000030517578 C-1.1339999437332153,0.5109999775886536 -0.746999979019165,-3.9779999256134033 -0.4830000102519989,-7.0289998054504395 C0.012000000104308128,-12.734000205993652 -3.48799991607666,-17.733999252319336 0.17299999296665192,-20.209999084472656"></path></g></g><g style="display: none;" transform="matrix(2.6729044914245605,-0.02610696479678154,0.02610696479678154,2.6729044914245605,-778.2322998046875,-869.9343872070312)" opacity="1"><g opacity="1" transform="matrix(1,0,0,1,321.6189880371094,402.17401123046875)"><path fill="rgb(61,169,214)" fill-opacity="1" d=" M-1.5889781713485718,-11.677210807800293 C0.6188717484474182,-9.412860870361328 2.3949999809265137,4.336999893188477 -2.3959999084472656,10.37399959564209"></path><path stroke-linecap="round" stroke-linejoin="round" fill-opacity="0" stroke="rgb(23,105,140)" stroke-opacity="1" stroke-width="2" d=" M-1.5889781713485718,-11.677210807800293 C0.6188717484474182,-9.412860870361328 2.3949999809265137,4.336999893188477 -2.3959999084472656,10.37399959564209"></path></g></g><g style="display: none;" transform="matrix(2.673030376434326,-0.002861238084733486,0.002861246233806014,2.6730380058288574,-772.8739624023438,-784.338623046875)" opacity="1"><g opacity="1" transform="matrix(1,0,0,1,321.6189880371094,402.17401123046875)"><path fill="rgb(61,169,214)" fill-opacity="1" d=" M-6.898291110992432,-6.849681854248047 C-4.698358058929443,-5.806882858276367 1.4153763055801392,-0.6490437984466553 -0.18375930190086365,5.328233242034912"></path><path stroke-linecap="round" stroke-linejoin="round" fill-opacity="0" stroke="rgb(23,105,140)" stroke-opacity="1" stroke-width="2" d=" M-6.898291110992432,-6.849681854248047 C-4.698358058929443,-5.806882858276367 1.4153763055801392,-0.6490437984466553 -0.18375930190086365,5.328233242034912"></path></g></g><g style="display: block;" transform="matrix(2.128037691116333,-1.617577075958252,1.617577075958252,2.128037691116333,-1220.1700439453125,-182.99607849121094)" opacity="1"><g opacity="1" transform="matrix(1,0,0,1,322.4830017089844,374.2669982910156)"><path fill="rgb(61,169,214)" fill-opacity="1" d=" M-11.73799991607666,-0.019999999552965164 C-9.616999626159668,-1.253999948501587 -0.734000027179718,-7.767000198364258 1.8370000123977661,-9.317000389099121 C4.193999767303467,-10.73799991607666 5.360764503479004,-12.165573120117188 7.694334506988525,-12.2168607711792 C10.624101638793945,-12.287226676940918 14.523978233337402,-13.346309661865234 18.490978240966797,-15.00430965423584 C26.571977615356445,-18.38231086730957 25.955978393554688,-12.688309669494629 21.843978881835938,-9.655309677124023 C17.524978637695312,-6.4693098068237305 12.144184112548828,-5.837251663208008 11.14087963104248,-5.721482276916504 C9.174964904785156,-5.58282470703125 5.796017169952393,-3.8057596683502197 3.998898983001709,-2.2414708137512207 C1.9265424013137817,-0.41180649399757385 -4.315232753753662,5.394471168518066 -6.519232749938965,6.241470813751221"></path><path stroke-linecap="round" stroke-linejoin="round" fill-opacity="0" stroke="rgb(23,105,140)" stroke-opacity="1" stroke-width="2.5" d=" M-11.73799991607666,-0.019999999552965164 C-9.616999626159668,-1.253999948501587 -0.734000027179718,-7.767000198364258 1.8370000123977661,-9.317000389099121 C4.193999767303467,-10.73799991607666 5.360764503479004,-12.165573120117188 7.694334506988525,-12.2168607711792 C10.624101638793945,-12.287226676940918 14.523978233337402,-13.346309661865234 18.490978240966797,-15.00430965423584 C26.571977615356445,-18.38231086730957 25.955978393554688,-12.688309669494629 21.843978881835938,-9.655309677124023 C17.524978637695312,-6.4693098068237305 12.144184112548828,-5.837251663208008 11.14087963104248,-5.721482276916504 C9.174964904785156,-5.58282470703125 5.796017169952393,-3.8057596683502197 3.998898983001709,-2.2414708137512207 C1.9265424013137817,-0.41180649399757385 -4.315232753753662,5.394471168518066 -6.519232749938965,6.241470813751221"></path></g></g><g style="display: block;" transform="matrix(2.6730165481567383,-0.009071438573300838,0.009071438573300838,2.6730165481567383,-766.4691162109375,-885.5389404296875)" opacity="1"><g opacity="1" transform="matrix(1,0,0,1,329.10198974609375,377.80999755859375)"><path fill="rgb(61,169,214)" fill-opacity="1" d=" M-22.7189998626709,2.7920000553131104 C-22.888999938964844,-1.5449999570846558 -21.080183029174805,-3.1340181827545166 -15.559712409973145,-2.5015928745269775 C-12.577336311340332,-2.154794216156006 -8.543561935424805,-5.1951375007629395 -4.392561435699463,-4.990137577056885 C-0.3615616261959076,-4.791137218475342 -1.1409848928451538,-0.5846969485282898 -2.356984853744507,1.4433029890060425 C-4.261984825134277,4.620303153991699 -5.778985023498535,7.879302978515625 -5.993984699249268,11.360302925109863 C-6.243984699249268,15.402302742004395 -10.011984825134277,15.67430305480957 -11.43598461151123,10.355302810668945 C-12.761984825134277,5.400302886962891 -11.588409423828125,4.494696140289307 -9.877408981323242,1.5636959075927734 C-9.17940902709961,0.3686959445476532 -4.1114091873168945,2.644695997238159 -6.055408954620361,2.2006959915161133 C-8.770408630371094,1.6226959228515625 -12.336000442504883,5.052999973297119 -14.657999992370605,4.443999767303467"></path><path stroke-linecap="round" stroke-linejoin="round" fill-opacity="0" stroke="rgb(23,105,140)" stroke-opacity="1" stroke-width="2.5" d=" M-22.7189998626709,2.7920000553131104 C-22.888999938964844,-1.5449999570846558 -21.080183029174805,-3.1340181827545166 -15.559712409973145,-2.5015928745269775 C-12.577336311340332,-2.154794216156006 -8.543561935424805,-5.1951375007629395 -4.392561435699463,-4.990137577056885 C-0.3615616261959076,-4.791137218475342 -1.1409848928451538,-0.5846969485282898 -2.356984853744507,1.4433029890060425 C-4.261984825134277,4.620303153991699 -5.778985023498535,7.879302978515625 -5.993984699249268,11.360302925109863 C-6.243984699249268,15.402302742004395 -10.011984825134277,15.67430305480957 -11.43598461151123,10.355302810668945 C-12.761984825134277,5.400302886962891 -11.588409423828125,4.494696140289307 -9.877408981323242,1.5636959075927734 C-9.17940902709961,0.3686959445476532 -4.1114091873168945,2.644695997238159 -6.055408954620361,2.2006959915161133 C-8.770408630371094,1.6226959228515625 -12.336000442504883,5.052999973297119 -14.657999992370605,4.443999767303467"></path></g></g><g style="display: block;" transform="matrix(2.6730165481567383,-0.009071438573300838,0.009071438573300838,2.6730165481567383,-761.5507202148438,-888.5902099609375)" opacity="1"><g opacity="1" transform="matrix(1,0,0,1,322.2569885253906,391.2749938964844)"><path fill="rgb(61,169,214)" fill-opacity="1" d=" M-11.649999618530273,-6.363999843597412 C-11.847999572753906,-9.11299991607666 -9.383000373840332,-11.86299991607666 -6.861000061035156,-11.777999877929688 C-4.083000183105469,-11.692999839782715 2.3207671642303467,-13.368281364440918 6.175767421722412,-13.680281639099121 C7.620767116546631,-13.793281555175781 9.161039352416992,-12.182112693786621 9.501038551330566,-11.304112434387207 C10.49303913116455,-8.695112228393555 7.4313201904296875,-2.331136465072632 7.88532018661499,0.47586363554000854 C8.651320457458496,5.350863456726074 2.243000030517578,6.86299991607666 1.7039999961853027,2.440999984741211 C1.5049999952316284,0.824999988079071 1.6759999990463257,0.8899999856948853 3.2909998893737793,-2.0869998931884766"></path><path stroke-linecap="round" stroke-linejoin="round" fill-opacity="0" stroke="rgb(23,105,140)" stroke-opacity="1" stroke-width="2.5" d=" M-11.649999618530273,-6.363999843597412 C-11.847999572753906,-9.11299991607666 -9.383000373840332,-11.86299991607666 -6.861000061035156,-11.777999877929688 C-4.083000183105469,-11.692999839782715 2.3207671642303467,-13.368281364440918 6.175767421722412,-13.680281639099121 C7.620767116546631,-13.793281555175781 9.161039352416992,-12.182112693786621 9.501038551330566,-11.304112434387207 C10.49303913116455,-8.695112228393555 7.4313201904296875,-2.331136465072632 7.88532018661499,0.47586363554000854 C8.651320457458496,5.350863456726074 2.243000030517578,6.86299991607666 1.7039999961853027,2.440999984741211 C1.5049999952316284,0.824999988079071 1.6759999990463257,0.8899999856948853 3.2909998893737793,-2.0869998931884766"></path></g></g><g style="display: block;" transform="matrix(0.8910055160522461,-0.0030238130129873753,0.0030238130129873753,0.8910055160522461,239.274169921875,19.303171157836914)" opacity="1"><g opacity="1" transform="matrix(1,0,0,1,0,0)"><path fill="rgb(61,169,214)" fill-opacity="1" d=" M-181,132.5 C-194,142.5 -203.25,179.75 -200,194 C-196.75,208.25 -148.51287841796875,215.39080810546875 -146.25,197.85269165039062 C-144.14730834960938,166.62887573242188 -142.95201110839844,155.6248321533203 -141.59967041015625,144.27549743652344 C-140.60665893554688,133.6448211669922 -170.4010009765625,124.34700012207031 -181,132.5z"></path></g></g><g style="display: block;" transform="matrix(2.6730165481567383,-0.009071438573300838,0.009071438573300838,2.6730165481567383,-754.2339477539062,-886.67822265625)" opacity="1"><g opacity="1" transform="matrix(1,0,0,1,323.4049987792969,391.9840087890625)"><path fill="rgb(61,169,214)" fill-opacity="1" d=" M-8.65999984741211,-4.1529998779296875 C-8.093999862670898,-8.77299976348877 -5.3233232498168945,-9.298569679260254 -2.374880790710449,-8.119288444519043 C-0.5823050737380981,-7.519712924957275 2.893286943435669,-8.304817199707031 5.284286975860596,-8.168817520141602 C9.903286933898926,-7.905817031860352 5.055847644805908,0.36531922221183777 4.715847492218018,3.993319272994995 C4.4038472175598145,7.395318984985352 -2.3589837551116943,6.345727443695068 -0.4999838173389435,0.579727292060852 C0.23701618611812592,-1.7062727212905884 0.2228798121213913,-0.9032727479934692 1.6728798151016235,-2.2772727012634277"></path><path stroke-linecap="round" stroke-linejoin="round" fill-opacity="0" stroke="rgb(23,105,140)" stroke-opacity="1" stroke-width="2.5" d=" M-8.65999984741211,-4.1529998779296875 C-8.093999862670898,-8.77299976348877 -5.3233232498168945,-9.298569679260254 -2.374880790710449,-8.119288444519043 C-0.5823050737380981,-7.519712924957275 2.893286943435669,-8.304817199707031 5.284286975860596,-8.168817520141602 C9.903286933898926,-7.905817031860352 5.055847644805908,0.36531922221183777 4.715847492218018,3.993319272994995 C4.4038472175598145,7.395318984985352 -2.3589837551116943,6.345727443695068 -0.4999838173389435,0.579727292060852 C0.23701618611812592,-1.7062727212905884 0.2228798121213913,-0.9032727479934692 1.6728798151016235,-2.2772727012634277"></path></g></g><g style="display: block;" transform="matrix(2.6730165481567383,-0.009071438573300838,0.009071438573300838,2.6730165481567383,-754.894775390625,-881.8668823242188)" opacity="1"><g opacity="1" transform="matrix(1,0,0,1,321.6189880371094,402.17401123046875)"><path fill="rgb(61,169,214)" fill-opacity="1" d=" M-1.2979999780654907,-14.708000183105469 C1.63100004196167,-11.590999603271484 2.3949999809265137,4.336999893188477 -2.3959999084472656,10.37399959564209"></path><path stroke-linecap="round" stroke-linejoin="round" fill-opacity="0" stroke="rgb(23,105,140)" stroke-opacity="1" stroke-width="2.5" d=" M-1.2979999780654907,-14.708000183105469 C1.63100004196167,-11.590999603271484 2.3949999809265137,4.336999893188477 -2.3959999084472656,10.37399959564209"></path></g></g><g style="display: block;" transform="matrix(0.9900050759315491,-0.0033523631282150745,0.0033523631282150745,0.9900050759315491,517.4288940429688,262.9962158203125)" opacity="1"><g opacity="1" transform="matrix(1,0,0,1,0,0)"><path fill="rgb(61,169,214)" fill-opacity="1" d=" M-205.37399291992188,-59.88399887084961 C-204.62399291992188,-52.88399887084961 -203.63491821289062,-30.50520133972168 -203.31991577148438,-27.11920166015625 C-202.35891723632812,-16.8087215423584 -194.3702392578125,35.21436309814453 -202.5,88.5 C-209.47946166992188,134.2295684814453 -210.19923400878906,194.9593963623047 -203.71923828125,223.76739501953125 C-200.18023681640625,239.49838256835938 -121.5074691772461,248.9575958251953 -120.011474609375,222.92359924316406 C-117.511474609375,179.42359924316406 -130.2449951171875,127.90899658203125 -137.98800659179688,93.7699966430664 C-147.25999450683594,52.88600158691406 -150.32899475097656,3.9570000171661377 -149.57899475097656,-54.36800003051758 C-149.21099853515625,-82.9749984741211 -206.12399291992188,-66.88400268554688 -205.37399291992188,-59.88399887084961z"></path></g><g opacity="1" transform="matrix(1,0,0,1,0,0)"><path fill="rgb(34,147,193)" fill-opacity="1" d=" M-137.54238891601562,237.44076538085938 C-127.5954360961914,235.18516540527344 -120.45247650146484,230.59559631347656 -120.011474609375,222.92359924316406 C-117.511474609375,179.42359924316406 -130.2449951171875,127.90899658203125 -137.98800659179688,93.7699966430664 C-147.25999450683594,52.88600158691406 -150.32899475097656,3.9570000171661377 -149.57899475097656,-54.36800003051758 C-149.4669952392578,-63.05799865722656 -156.82383728027344,-67.6479721069336 -164.0608367919922,-69.59697723388672 C-173.37997436523438,-51.9608039855957 -158.38851928710938,212.3887176513672 -137.54238891601562,237.44076538085938z"></path></g><g opacity="1" transform="matrix(1,0,0,1,0,0)"><path stroke-linecap="round" stroke-linejoin="miter" fill-opacity="0" stroke-miterlimit="4" stroke="rgb(23,105,140)" stroke-opacity="1" stroke-width="7" d=" M-120.011474609375,222.92359924316406 C-117.511474609375,179.42359924316406 -130.2449951171875,127.90899658203125 -137.98800659179688,93.7699966430664 C-147.25999450683594,52.88600158691406 -150.32899475097656,3.9570000171661377 -149.57899475097656,-54.36800003051758 C-149.21099853515625,-82.9749984741211 -206.12399291992188,-66.88400268554688 -205.37399291992188,-59.88399887084961 C-204.62399291992188,-52.88399887084961 -203.63491821289062,-30.50520133972168 -203.31991577148438,-27.11920166015625 C-202.35891723632812,-16.8087215423584 -194.3702392578125,35.21436309814453 -202.5,88.5 C-209.47946166992188,134.2295684814453 -210.19923400878906,194.9593963623047 -203.71923828125,223.76739501953125"></path></g></g><g style="display: block;" transform="matrix(1.8056682348251343,1.9709545373916626,-1.9709545373916626,1.8056682348251343,2.20586895942688,-1034.5264892578125)" opacity="1"><g opacity="1" transform="matrix(1,0,0,1,396.3190002441406,178.66600036621094)"><path fill="rgb(61,169,214)" fill-opacity="1" d=" M19.98501968383789,3.9754955768585205 C19.315019607543945,1.005495548248291 15.609273910522461,-0.16209925711154938 14.366389274597168,-0.05136524885892868 C12.75748062133789,-0.8801478147506714 10.448051452636719,-2.689159870147705 9.154050827026367,-3.993159770965576 C8.290051460266113,-4.863159656524658 6.530346393585205,-6.063883304595947 4.089200019836426,-6.3323469161987305 C1.332921028137207,-6.666993141174316 -4.76119327545166,-9.093802452087402 -7.30666446685791,-10.217387199401855 C-14.704398155212402,-13.483266830444336 -14.773594856262207,-7.500049114227295 -9.963191986083984,-4.835728168487549 C-8.295079231262207,-3.9121975898742676 -1.5164562463760376,-1.8156167268753052 -0.2505999505519867,-1.5638755559921265 C1.0754001140594482,-1.2797611951828003 2.9811220169067383,-0.23331256210803986 3.6590213775634766,0.5272108912467957 C4.161656379699707,1.1627249717712402 11.066072463989258,8.311366081237793 12.119072914123535,9.085366249084473"></path><path stroke-linecap="round" stroke-linejoin="miter" fill-opacity="0" stroke-miterlimit="10" stroke="rgb(23,105,140)" stroke-opacity="1" stroke-width="2.5" d=" M19.98501968383789,3.9754955768585205 C19.315019607543945,1.005495548248291 15.609273910522461,-0.16209925711154938 14.366389274597168,-0.05136524885892868 C12.75748062133789,-0.8801478147506714 10.448051452636719,-2.689159870147705 9.154050827026367,-3.993159770965576 C8.290051460266113,-4.863159656524658 6.530346393585205,-6.063883304595947 4.089200019836426,-6.3323469161987305 C1.332921028137207,-6.666993141174316 -4.76119327545166,-9.093802452087402 -7.30666446685791,-10.217387199401855 C-14.704398155212402,-13.483266830444336 -14.773594856262207,-7.500049114227295 -9.963191986083984,-4.835728168487549 C-8.295079231262207,-3.9121975898742676 -1.5164562463760376,-1.8156167268753052 -0.2505999505519867,-1.5638755559921265 C1.0754001140594482,-1.2797611951828003 2.9811220169067383,-0.23331256210803986 3.6590213775634766,0.5272108912467957 C4.161656379699707,1.1627249717712402 11.066072463989258,8.311366081237793 12.119072914123535,9.085366249084473"></path></g></g><g style="display: block;" transform="matrix(2.6730165481567383,-0.009051389992237091,0.009051389992237091,2.6730165481567383,-713.0748291015625,-377.5643005371094)" opacity="1"><g opacity="1" transform="matrix(1,0,0,1,396.875,208.75)"><path fill="rgb(61,169,214)" fill-opacity="1" d=" M0.125,-16.66699981689453 C0.125,-16.66699981689453 3.196000099182129,-18.49799919128418 5.455999851226807,-20.261999130249023 C6.99399995803833,-21.46299934387207 6.828000068664551,-21.91200065612793 8.586999893188477,-22.694000244140625 C11.397000312805176,-23.944000244140625 15.542591094970703,-24.685514450073242 15.958000183105469,-24.41699981689453 C17.63365364074707,-23.229076385498047 16.878999710083008,8.281000137329102 3.9170000553131104,17.70800018310547 C-7.1020002365112305,25.722000122070312 -13.083000183105469,18.875 -13.083000183105469,18.875 C-17.113954544067383,10.813733100891113 -16.326719284057617,1.4132801294326782 -15.640718460083008,-3.9347198009490967 C-15.120718955993652,-7.988719940185547 -11.761363983154297,-12.686190605163574 -10.167967796325684,-14.09614086151123 C-7.496687412261963,-16.534896850585938 0.125,-16.66699981689453 0.125,-16.66699981689453z"></path></g></g><g style="display: block;" transform="matrix(2.6730165481567383,-0.009051389992237091,0.009051389992237091,2.6730165481567383,-714.09814453125,-373.0419616699219)" opacity="1"><g opacity="1" transform="matrix(1,0,0,1,390.7359924316406,180.7449951171875)"><path fill="rgb(61,169,214)" fill-opacity="1" d=" M19.135000228881836,4.517000198364258 C19.58099937438965,2.561000108718872 18.614974975585938,-0.08366025239229202 14.323765754699707,-0.3370937407016754 C10.71709156036377,-0.555705726146698 10.18995189666748,-1.8419041633605957 7.766952037811279,-2.9149041175842285 C4.293951988220215,-4.452904224395752 2.203580141067505,-2.4589040279388428 1.8025802373886108,-0.600904107093811 C0.9605802297592163,3.296095848083496 -2.6771886348724365,9.347234725952148 -3.89918851852417,16.260234832763672 C-4.76218843460083,21.142234802246094 0.9388114213943481,20.704235076904297 1.7778114080429077,17.22923469543457 C2.4638113975524902,14.386234283447266 4.905811309814453,8.51323413848877 5.836811542510986,6.141234397888184 C6.390811443328857,4.72823429107666 7.496811389923096,3.5202343463897705 8.098811149597168,3.880234479904175 C9.155811309814453,4.5132341384887695 8.95300006866455,5.060999870300293 11.496999740600586,5.302000045776367"></path><path stroke-linecap="round" stroke-linejoin="miter" fill-opacity="0" stroke-miterlimit="10" stroke="rgb(23,105,140)" stroke-opacity="1" stroke-width="2.5" d=" M19.135000228881836,4.517000198364258 C19.58099937438965,2.561000108718872 18.614974975585938,-0.08366025239229202 14.323765754699707,-0.3370937407016754 C10.71709156036377,-0.555705726146698 10.18995189666748,-1.8419041633605957 7.766952037811279,-2.9149041175842285 C4.293951988220215,-4.452904224395752 2.203580141067505,-2.4589040279388428 1.8025802373886108,-0.600904107093811 C0.9605802297592163,3.296095848083496 -2.6771886348724365,9.347234725952148 -3.89918851852417,16.260234832763672 C-4.76218843460083,21.142234802246094 0.9388114213943481,20.704235076904297 1.7778114080429077,17.22923469543457 C2.4638113975524902,14.386234283447266 4.905811309814453,8.51323413848877 5.836811542510986,6.141234397888184 C6.390811443328857,4.72823429107666 7.496811389923096,3.5202343463897705 8.098811149597168,3.880234479904175 C9.155811309814453,4.5132341384887695 8.95300006866455,5.060999870300293 11.496999740600586,5.302000045776367"></path></g></g><g style="display: block;" transform="matrix(2.6730165481567383,-0.009051389992237091,0.009051389992237091,2.6730165481567383,-723.739501953125,-371.6704406738281)" opacity="1"><g opacity="1" transform="matrix(1,0,0,1,393.3059997558594,195.38900756835938)"><path fill="rgb(61,169,214)" fill-opacity="1" d=" M14.074999809265137,-7.978000164031982 C14.144000053405762,-8.777999877929688 14.883000373840332,-11.541000366210938 12.527000427246094,-12.13599967956543 C11.156999588012695,-12.482000350952148 9.555281639099121,-12.203063011169434 8.168309211730957,-12.442138671875 C6.273068428039551,-12.757807731628418 3.7436516284942627,-13.91765308380127 0.5658490061759949,-15.22456169128418 C-0.5355979204177856,-15.677334785461426 -3.208207607269287,-16.34979820251465 -4.367242813110352,-13.741982460021973 C-5.123748779296875,-12.040447235107422 -5.095941066741943,-8.57065200805664 -5.054651260375977,-7.199280261993408 C-4.946395397186279,-3.6261649131774902 -5.567050457000732,-3.2772440910339355 -5.733098983764648,-0.5268347859382629 C-5.912994384765625,2.451087236404419 -3.9516615867614746,2.525158643722534 -2.85390305519104,1.9444191455841064"></path><path stroke-linecap="round" stroke-linejoin="miter" fill-opacity="0" stroke-miterlimit="10" stroke="rgb(23,105,140)" stroke-opacity="1" stroke-width="2.5" d=" M14.074999809265137,-7.978000164031982 C14.144000053405762,-8.777999877929688 14.883000373840332,-11.541000366210938 12.527000427246094,-12.13599967956543 C11.156999588012695,-12.482000350952148 9.555281639099121,-12.203063011169434 8.168309211730957,-12.442138671875 C6.273068428039551,-12.757807731628418 3.7436516284942627,-13.91765308380127 0.5658490061759949,-15.22456169128418 C-0.5355979204177856,-15.677334785461426 -3.208207607269287,-16.34979820251465 -4.367242813110352,-13.741982460021973 C-5.123748779296875,-12.040447235107422 -5.095941066741943,-8.57065200805664 -5.054651260375977,-7.199280261993408 C-4.946395397186279,-3.6261649131774902 -5.567050457000732,-3.2772440910339355 -5.733098983764648,-0.5268347859382629 C-5.912994384765625,2.451087236404419 -3.9516615867614746,2.525158643722534 -2.85390305519104,1.9444191455841064"></path></g></g><g style="display: block;" transform="matrix(0.8910055160522461,-0.0030171298421919346,0.0030171298421919346,0.8910055160522461,345.8307189941406,177.44471740722656)" opacity="1"><g opacity="1" transform="matrix(1,0,0,1,0,0)"><path fill="rgb(61,169,214)" fill-opacity="1" d=" M1.75,-55.25 C-17.75,-50.75 -17.676000595092773,-50.8390007019043 -25.5,-46 C-44.5,-34.25 -40.49100112915039,-30.788000106811523 -41,-13.75 C-41.5,3 -5.2006940841674805,-9.227729797363281 -5.2006940841674805,-21.47772979736328 C-5.2006940841674805,-33.72772979736328 21.25,-59.75 1.75,-55.25z"></path></g></g><g style="display: block;" transform="matrix(2.6730165481567383,-0.009051389992237091,0.009051389992237091,2.6730165481567383,-713.0748291015625,-377.5643005371094)" opacity="1"><g opacity="1" transform="matrix(1,0,0,1,396.875,208.75)"><path fill="rgb(34,147,193)" fill-opacity="1" d=" M-2.290120840072632,-14.95128059387207 C-1.973647117614746,-18.181119918823242 0.3762894868850708,-15.821610450744629 -1.0540496110916138,-18.355579376220703 C5.172950267791748,-14.774578094482422 -0.016070250421762466,-23.375883102416992 5.209929943084717,-22.086883544921875 C6.114630699157715,-21.81002426147461 4.746953964233398,-18.340803146362305 6.310301780700684,-18.13848304748535 C8.204070091247559,-17.86784553527832 8.079673767089844,-19.93381690979004 7.93019437789917,-21.687074661254883 C7.810905933380127,-23.061138153076172 9.338396072387695,-24.37482452392578 10.401000022888184,-24.118000030517578 C12.357206344604492,-23.784164428710938 10.902782440185547,-20.703981399536133 12.282066345214844,-20.59728240966797 C15.570402145385742,-20.063556671142578 12.749828338623047,-26.147403717041016 15.812000274658203,-23.562999725341797 C16.937000274658203,-22.937999725341797 16.340999603271484,5.311999797821045 5.985000133514404,15.682000160217285 C5.9120001792907715,17.11400032043457 6.8234968185424805,23.252859115600586 0.8044968843460083,19.729860305786133 C-2.0689451694488525,14.651215553283691 -4.885912895202637,11.55654525756836 -2.290120840072632,-14.95128059387207z"></path></g></g><g style="display: block;" transform="matrix(2.6730165481567383,-0.009051389992237091,0.009051389992237091,2.6730165481567383,-733.92578125,-372.1580505371094)" opacity="1"><g opacity="1" transform="matrix(1,0,0,1,393.89300537109375,193.75799560546875)"><path fill="rgb(61,169,214)" fill-opacity="1" d=" M8.964766502380371,-3.5090010166168213 C9.679766654968262,-4.871001243591309 7.7229533195495605,-8.66181468963623 3.6109530925750732,-6.441814422607422 C2.5339531898498535,-5.859814643859863 -2.598187208175659,-7.802500247955322 -3.5970959663391113,-7.889484405517578 C-5.703628063201904,-8.344295501708984 -7.788812637329102,-5.818392753601074 -7.111812591552734,-3.403392791748047 C-5.408812522888184,2.668607234954834 -7.262617111206055,6.463320255279541 -5.269617080688477,7.2413201332092285"></path><path stroke-linecap="round" stroke-linejoin="miter" fill-opacity="0" stroke-miterlimit="10" stroke="rgb(23,105,140)" stroke-opacity="1" stroke-width="2.5" d=" M8.964766502380371,-3.5090010166168213 C9.679766654968262,-4.871001243591309 7.7229533195495605,-8.66181468963623 3.6109530925750732,-6.441814422607422 C2.5339531898498535,-5.859814643859863 -2.598187208175659,-7.802500247955322 -3.5970959663391113,-7.889484405517578 C-5.703628063201904,-8.344295501708984 -7.788812637329102,-5.818392753601074 -7.111812591552734,-3.403392791748047 C-5.408812522888184,2.668607234954834 -7.262617111206055,6.463320255279541 -5.269617080688477,7.2413201332092285"></path></g></g><g style="display: block;" transform="matrix(2.6730165481567383,-0.009051389992237091,0.009051389992237091,2.6730165481567383,-713.07666015625,-377.5643005371094)" opacity="1"><g opacity="1" transform="matrix(1,0,0,1,396.875,208.75)"><path stroke-linecap="round" stroke-linejoin="miter" fill-opacity="0" stroke-miterlimit="10" stroke="rgb(23,105,140)" stroke-opacity="1" stroke-width="2.5" d=" M-12.366000175476074,19.643999099731445 C-13.755000114440918,18.444000244140625 -14.392999649047852,17.20800018310547 -14.392999649047852,17.20800018310547 C-17.746091842651367,5.556000232696533 -15.993719100952148,4.056000232696533 -16.30771827697754,-0.4580000042915344 C-16.591718673706055,-4.534999847412109 -15.348532676696777,-10.995626449584961 -13.723532676696777,-12.370626449584961 C-13.16100025177002,-12.847000122070312 -12.440999984741211,-13.338000297546387 -11.739999771118164,-13.777000427246094 M16.863000869750977,-22.985000610351562 C17.44300079345703,-18.17099952697754 15.890999794006348,5.656000137329102 6.119999885559082,15.835000038146973"></path></g></g><g style="display: none;" transform="matrix(1,0,0,1,260.5,252.5)" opacity="1"><g opacity="1" transform="matrix(1,0,0,1,0,0)"><path stroke-linecap="round" stroke-linejoin="miter" fill-opacity="0" stroke-miterlimit="4" stroke="rgb(255,163,4)" stroke-opacity="1" stroke-width="8" d=" M-116.28500366210938,-150.04200744628906 C-112.41400146484375,-158.19900512695312 -108,-167.5 -108,-167.5"></path></g><g opacity="1" transform="matrix(1,0,0,1,0,0)"><path stroke-linecap="round" stroke-linejoin="miter" fill-opacity="0" stroke-miterlimit="4" stroke="rgb(255,163,4)" stroke-opacity="1" stroke-width="8" d=" M-96.69300079345703,-131.4600067138672 C-86.3239974975586,-136.8520050048828 -74.5,-143 -74.5,-143"></path></g><g opacity="1" transform="matrix(1,0,0,1,0,0)"><path stroke-linecap="round" stroke-linejoin="miter" fill-opacity="0" stroke-miterlimit="4" stroke="rgb(255,163,4)" stroke-opacity="1" stroke-width="8" d=" M-96.95800018310547,-102.7750015258789 C-88.8010025024414,-101.94599914550781 -79.5,-101 -79.5,-101"></path></g></g><g style="display: none;" transform="matrix(-0.9743700623512268,-0.22495105862617493,-0.22495105862617493,0.9743700623512268,161.3362579345703,199.30157470703125)" opacity="1"><g opacity="1" transform="matrix(1,0,0,1,0,0)"><path stroke-linecap="round" stroke-linejoin="miter" fill-opacity="0" stroke-miterlimit="4" stroke="rgb(255,163,4)" stroke-opacity="1" stroke-width="8" d=" M-117.83899688720703,-150.281005859375 C-115.02100372314453,-158.60000610351562 -111.80699920654297,-168.08599853515625 -111.80699920654297,-168.08599853515625"></path></g><g opacity="1" transform="matrix(1,0,0,1,0,0)"><path stroke-linecap="round" stroke-linejoin="miter" fill-opacity="0" stroke-miterlimit="4" stroke="rgb(255,163,4)" stroke-opacity="1" stroke-width="8" d=" M-96.69300079345703,-131.4600067138672 C-86.3239974975586,-136.8520050048828 -74.5,-143 -74.5,-143"></path></g><g opacity="1" transform="matrix(1,0,0,1,0,0)"><path stroke-linecap="round" stroke-linejoin="miter" fill-opacity="0" stroke-miterlimit="4" stroke="rgb(255,163,4)" stroke-opacity="1" stroke-width="8" d=" M-95.6050033569336,-101.06900024414062 C-86.53099822998047,-99.08300018310547 -76.18499755859375,-96.81900024414062 -76.18499755859375,-96.81900024414062"></path></g></g></g></svg>