<svg xmlns="http://www.w3.org/2000/svg" xmlns:xlink="http://www.w3.org/1999/xlink" viewBox="0 0 512 512" width="512" height="512" style="width: 100%; height: 100%; transform: translate3d(0px, 0px, 0px);" preserveAspectRatio="xMidYMid meet"><defs><clipPath id="__lottie_element_202"><rect width="512" height="512" x="0" y="0"></rect></clipPath><linearGradient id="__lottie_element_272" spreadMethod="pad" gradientUnits="userSpaceOnUse" x1="46.76900100708008" y1="12.307999610900879" x2="111.48699951171875" y2="1.6410000324249268"><stop offset="0%" stop-color="rgb(230,153,231)"></stop><stop offset="50%" stop-color="rgb(219,132,221)"></stop><stop offset="100%" stop-color="rgb(209,111,210)"></stop></linearGradient></defs><g clip-path="url(#__lottie_element_202)"><g style="display: block;" transform="matrix(1.2157800197601318,-0.08501560986042023,0.08013266324996948,1.145950436592102,-67.1160888671875,-20.262920379638672)" opacity="1"><g opacity="1" transform="matrix(1,0,0,1,362.6619873046875,300.51300048828125)"><path fill="rgb(61,169,214)" fill-opacity="1" d=" M-25.878000259399414,-93.76300048828125 C-11.411999702453613,-94.72100067138672 6.635000228881836,-79.32099914550781 7.0879998207092285,-37.159000396728516 C7.204999923706055,-26.253999710083008 19.83799934387207,-27.26300048828125 33.5880012512207,16.924999237060547 C40.124000549316406,37.92900085449219 55.5880012512207,46.573001861572266 51.0880012512207,79.98699951171875 C49.10300064086914,94.72000122070312 5.34499979019165,73.23899841308594 -14.265000343322754,35.49399948120117 C-27.482999801635742,10.052000045776367 -22.14900016784668,-6.769000053405762 -32.16699981689453,-21.292999267578125 C-36.91899871826172,-26.43600082397461 -58.20899963378906,-28.64699935913086 -77.30799865722656,-24.250999450683594 C-102.73999786376953,-18.39699935913086 -40.73899841308594,-92.77899932861328 -25.878000259399414,-93.76300048828125z"></path></g><g opacity="1" transform="matrix(1,0,0,1,362.6619873046875,300.51300048828125)"><path fill="rgb(10,126,175)" fill-opacity="0.5" d=" M-25.878000259399414,-93.76300048828125 C-11.411999702453613,-94.72100067138672 6.635000228881836,-79.32099914550781 7.0879998207092285,-37.159000396728516 C7.204999923706055,-26.253999710083008 19.83799934387207,-27.26300048828125 33.5880012512207,16.924999237060547 C40.124000549316406,37.92900085449219 55.5880012512207,46.573001861572266 51.0880012512207,79.98699951171875 C49.10300064086914,94.72000122070312 5.34499979019165,73.23899841308594 -14.265000343322754,35.49399948120117 C-27.482999801635742,10.052000045776367 -22.14900016784668,-6.769000053405762 -32.16699981689453,-21.292999267578125 C-36.91899871826172,-26.43600082397461 -58.20899963378906,-28.64699935913086 -77.30799865722656,-24.250999450683594 C-102.73999786376953,-18.39699935913086 -40.73899841308594,-92.77899932861328 -25.878000259399414,-93.76300048828125z"></path></g><g opacity="1" transform="matrix(1,0,0,1,362.6619873046875,300.51300048828125)"><path stroke-linecap="round" stroke-linejoin="round" fill-opacity="0" stroke="rgb(24,105,141)" stroke-opacity="1" stroke-width="6" d=" M-25.878000259399414,-93.76300048828125 C-11.411999702453613,-94.72100067138672 6.635000228881836,-79.32099914550781 7.0879998207092285,-37.159000396728516 C7.204999923706055,-26.253999710083008 19.83799934387207,-27.26300048828125 33.5880012512207,16.924999237060547 C40.124000549316406,37.92900085449219 55.5880012512207,46.573001861572266 51.0880012512207,79.98699951171875 C49.10300064086914,94.72000122070312 5.34499979019165,73.23899841308594 -14.265000343322754,35.49399948120117 C-27.482999801635742,10.052000045776367 -22.14900016784668,-6.769000053405762 -32.16699981689453,-21.292999267578125 C-36.91899871826172,-26.43600082397461 -58.20899963378906,-28.64699935913086 -77.30799865722656,-24.250999450683594 C-102.73999786376953,-18.39699935913086 -40.73899841308594,-92.77899932861328 -25.878000259399414,-93.76300048828125z"></path></g></g><g style="display: block;" transform="matrix(1.21875,0,0,1.21875,-43.99974060058594,-54.00042724609375)" opacity="1"><g opacity="1" transform="matrix(1,0,0,1,234.66099548339844,331.25)"><path fill="rgb(203,103,48)" fill-opacity="1" d=" M-78.28299713134766,-117.92900085449219 C-92.91799926757812,-110.32599639892578 -100.71199798583984,-102.3270034790039 -112.37699890136719,-92.71299743652344 C-101.28900146484375,-74.33999633789062 -87.37899780273438,-19.454999923706055 -90.18000030517578,2.6029999256134033 C-86.55799865722656,22.391000747680664 -84.45600128173828,87.51300048828125 -84.45600128173828,87.51300048828125 C-67.68699645996094,108.95500183105469 71.71700286865234,123.46800231933594 111.46700286865234,85.21800231933594 C117.33899688720703,13.364999771118164 105.03199768066406,-20.275999069213867 98.11499786376953,-32.20500183105469 C102.30000305175781,-68.12200164794922 106.11499786376953,-110.197998046875 103.98699951171875,-137.41700744628906 C85.13400268554688,-129.4040069580078 63.79999923706055,-117.50700378417969 55.435001373291016,-111.94100189208984 C17.749000549316406,-109.37200164794922 -78.28299713134766,-117.92900085449219 -78.28299713134766,-117.92900085449219z"></path><path fill="rgb(230,153,231)" fill-opacity="1" d=" M-78.28299713134766,-117.92900085449219 C-92.91799926757812,-110.32599639892578 -100.71199798583984,-102.3270034790039 -112.37699890136719,-92.71299743652344 C-101.28900146484375,-74.33999633789062 -87.37899780273438,-19.454999923706055 -90.18000030517578,2.6029999256134033 C-86.55799865722656,22.391000747680664 -84.45600128173828,87.51300048828125 -84.45600128173828,87.51300048828125 C-67.68699645996094,108.95500183105469 71.71700286865234,123.46800231933594 111.46700286865234,85.21800231933594 C117.33899688720703,13.364999771118164 105.03199768066406,-20.275999069213867 98.11499786376953,-32.20500183105469 C102.30000305175781,-68.12200164794922 106.11499786376953,-110.197998046875 103.98699951171875,-137.41700744628906 C85.13400268554688,-129.4040069580078 63.79999923706055,-117.50700378417969 55.435001373291016,-111.94100189208984 C17.749000549316406,-109.37200164794922 -78.28299713134766,-117.92900085449219 -78.28299713134766,-117.92900085449219z"></path></g><g opacity="1" transform="matrix(1,0,0,1,234.66099548339844,331.25)"><path fill="url(#__lottie_element_272)" fill-opacity="1" d=" M79.72699737548828,101.16899871826172 C93.04900360107422,97.48500061035156 104.13899993896484,92.26899719238281 111.46700286865234,85.21800231933594 C117.33899688720703,13.364999771118164 105.03199768066406,-20.275999069213867 98.11499786376953,-32.20500183105469 C102.30000305175781,-68.12200164794922 106.11499786376953,-110.197998046875 103.98699951171875,-137.41700744628906 C85.13400268554688,-129.4040069580078 63.79999923706055,-117.50700378417969 55.435001373291016,-111.94100189208984 C51.558998107910156,-111.677001953125 23.895999908447266,-110.56300354003906 27.06399917602539,-106.18099975585938 C43.492000579833984,-83.45600128173828 48.41600036621094,-53.91699981689453 51.12799835205078,-18.554000854492188 C67.28800201416016,6.801000118255615 77.13400268554688,60.95500183105469 79.72699737548828,101.16899871826172z"></path></g><g opacity="1" transform="matrix(1,0,0,1,234.66099548339844,331.25)"><path stroke-linecap="round" stroke-linejoin="round" fill-opacity="0" stroke="rgb(150,54,152)" stroke-opacity="1" stroke-width="6" d=" M111.46700286865234,85.21800231933594 C117.33899688720703,13.364999771118164 105.03199768066406,-20.275999069213867 98.11499786376953,-32.20500183105469 C102.30000305175781,-68.12200164794922 106.11499786376953,-110.197998046875 103.98699951171875,-137.41700744628906 C85.13400268554688,-129.4040069580078 63.79999923706055,-117.50700378417969 55.435001373291016,-111.94100189208984 C17.749000549316406,-109.37200164794922 -78.28299713134766,-117.92900085449219 -78.28299713134766,-117.92900085449219 C-92.91799926757812,-110.32599639892578 -100.71199798583984,-102.3270034790039 -112.37699890136719,-92.71299743652344 C-101.28900146484375,-74.33999633789062 -87.37899780273438,-19.04400062561035 -90.18000030517578,2.6029999256134033 C-86.14800262451172,21.981000900268555 -84.45600128173828,87.51300048828125 -84.45600128173828,87.51300048828125 C-67.68699645996094,108.95500183105469 71.71700286865234,123.46800231933594 111.46700286865234,85.21800231933594z"></path></g></g><g style="display: block;" transform="matrix(1.2187488079071045,0,0,1.2187488079071045,-58.811153411865234,-37.567481994628906)" opacity="1"><g opacity="1" transform="matrix(1,0,0,1,126.34500122070312,337.8330078125)"><path fill="rgb(61,169,214)" fill-opacity="1" d=" M-6.8460001945495605,-104.33300018310547 C-18.236000061035156,-97.64600372314453 -30.969999313354492,-62.67499923706055 -32.178001403808594,-43 C-34.012001037597656,-13.166000366210938 -24.78499984741211,-6.426000118255615 -24.67799949645996,0.5809999704360962 C-24.344999313354492,22.5 -27.34600067138672,33.51300048828125 -29.23699951171875,47.191001892089844 C-33.428001403808594,77.50599670410156 -24.898000717163086,95.29000091552734 -14.060999870300293,100.3010025024414 C-1.0290000438690186,106.3280029296875 17.62700080871582,85.01599884033203 19.12700080871582,73.3489990234375 C20.62700080871582,61.68299865722656 34.132999420166016,18.865999221801758 26.5,-17.448999404907227 C31.60300064086914,-43.27000045776367 32.42300033569336,-133.93600463867188 -6.8460001945495605,-104.33300018310547z"></path><path stroke-linecap="round" stroke-linejoin="round" fill-opacity="0" stroke="rgb(24,105,141)" stroke-opacity="1" stroke-width="6" d=" M-6.8460001945495605,-104.33300018310547 C-18.236000061035156,-97.64600372314453 -30.969999313354492,-62.67499923706055 -32.178001403808594,-43 C-34.012001037597656,-13.166000366210938 -24.78499984741211,-6.426000118255615 -24.67799949645996,0.5809999704360962 C-24.344999313354492,22.5 -27.34600067138672,33.51300048828125 -29.23699951171875,47.191001892089844 C-33.428001403808594,77.50599670410156 -24.898000717163086,95.29000091552734 -14.060999870300293,100.3010025024414 C-1.0290000438690186,106.3280029296875 17.62700080871582,85.01599884033203 19.12700080871582,73.3489990234375 C20.62700080871582,61.68299865722656 34.132999420166016,18.865999221801758 26.5,-17.448999404907227 C31.60300064086914,-43.27000045776367 32.42300033569336,-133.93600463867188 -6.8460001945495605,-104.33300018310547z"></path></g></g><g style="display: block;" transform="matrix(0.9961936473846436,-0.08715564757585526,0.08715564757585526,0.9961936473846436,241.67771911621094,259.52142333984375)" opacity="1"><g opacity="1" transform="matrix(1,0,0,1,0,0)"><path fill="rgb(22,188,76)" fill-opacity="1" d=" M-147.5,-32.5 C-140.76199340820312,-32.27399826049805 -135.2729949951172,-29.033000946044922 -133.1199951171875,-25.62700080871582 C-125.20800018310547,-17.863000869750977 -122.33300018310547,12.723999977111816 -121.46900177001953,26.56399917602539 C-120.0459976196289,49.34199905395508 -122.02899932861328,72.00599670410156 -122.54100036621094,86.43299865722656 C-120.75700378417969,86.36699676513672 -118.5780029296875,90.07099914550781 -116.09400177001953,86.54000091552734 C-110.51899719238281,78.61599731445312 -106.2509994506836,44.48899841308594 -107.70800018310547,15.27299976348877 C-108.72100067138672,-5.045000076293945 -113.16100311279297,-29.35700035095215 -123.99099731445312,-36.21099853515625 C-127.83100128173828,-38.64099884033203 -143.75,-41 -147.5,-32.5z"></path><path stroke-linecap="round" stroke-linejoin="round" fill-opacity="0" stroke="rgb(6,108,40)" stroke-opacity="1" stroke-width="7" d=" M-147.5,-32.5 C-140.76199340820312,-32.27399826049805 -135.2729949951172,-29.033000946044922 -133.1199951171875,-25.62700080871582 C-125.20800018310547,-17.863000869750977 -122.33300018310547,12.723999977111816 -121.46900177001953,26.56399917602539 C-120.0459976196289,49.34199905395508 -122.02899932861328,72.00599670410156 -122.54100036621094,86.43299865722656 C-120.75700378417969,86.36699676513672 -118.5780029296875,90.07099914550781 -116.09400177001953,86.54000091552734 C-110.51899719238281,78.61599731445312 -106.2509994506836,44.48899841308594 -107.70800018310547,15.27299976348877 C-108.72100067138672,-5.045000076293945 -113.16100311279297,-29.35700035095215 -123.99099731445312,-36.21099853515625 C-127.83100128173828,-38.64099884033203 -143.75,-41 -147.5,-32.5z"></path></g></g><g style="display: block;" transform="matrix(-0.999998927116394,0,0,0.999998927116394,224.30213928222656,214.87704467773438)" opacity="1"><g opacity="1" transform="matrix(1,0,0,1,0,0)"><path fill="rgb(17,163,65)" fill-opacity="1" d=" M-151.125,-33.125 C-153.19700622558594,-24 -150.0260009765625,16.68400001525879 -148.76600646972656,26.225000381469727 C-146.94700622558594,40 -142.69700622558594,93.125 -140.625,95.875 C-139.07200622558594,96.875 -134.3159942626953,100.677001953125 -134.66099548339844,96.3740005493164 C-135.572998046875,85 -135.69700622558594,46.5 -136.08599853515625,19.22599983215332 C-136.48800659179688,-8.972000122070312 -132.19700622558594,-31.25 -136.46099853515625,-35.80400085449219 C-140.69700622558594,-40.5 -151.69700622558594,-37.25 -151.125,-33.125z"></path><path stroke-linecap="round" stroke-linejoin="round" fill-opacity="0" stroke="rgb(6,108,40)" stroke-opacity="1" stroke-width="7" d=" M-151.125,-33.125 C-153.19700622558594,-24 -150.0260009765625,16.68400001525879 -148.76600646972656,26.225000381469727 C-146.94700622558594,40 -142.69700622558594,93.125 -140.625,95.875 C-139.07200622558594,96.875 -134.3159942626953,100.677001953125 -134.66099548339844,96.3740005493164 C-135.572998046875,85 -135.69700622558594,46.5 -136.08599853515625,19.22599983215332 C-136.48800659179688,-8.972000122070312 -132.19700622558594,-31.25 -136.46099853515625,-35.80400085449219 C-140.69700622558594,-40.5 -151.69700622558594,-37.25 -151.125,-33.125z"></path></g></g><g style="display: block;" transform="matrix(1.2185649871826172,0.021270129829645157,-0.021270129829645157,1.2185649871826172,-66.8117446899414,-59.1768684387207)" opacity="1"><g opacity="1" transform="matrix(1,0,0,1,233.875,214.75)"><path fill="rgb(22,188,76)" fill-opacity="1" d=" M-54.95500183105469,0.24400000274181366 C-41.05400085449219,21.35300064086914 46.5359992980957,20.531999588012695 71.71499633789062,8.506999969482422 C77.0999984741211,6.584000110626221 81.90799713134766,-10.75 74.16999816894531,-11.416000366210938 C60.76599884033203,-8.083000183105469 -37.125999450683594,-17.979000091552734 -46.4640007019043,-20.108999252319336 C-59.72100067138672,-15.364999771118164 -54.95500183105469,0.24400000274181366 -54.95500183105469,0.24400000274181366z"></path></g><g opacity="1" transform="matrix(1,0,0,1,233.875,214.75)"><path fill="rgb(17,163,65)" fill-opacity="1" d=" M48.60200119018555,14.538999557495117 C58.244998931884766,13.098999977111816 66.37999725341797,11.055000305175781 71.71499633789062,8.506999969482422 C77.0999984741211,6.584000110626221 81.90799713134766,-10.75 74.16999816894531,-11.416000366210938 C71.30599975585938,-10.704000473022461 60.40800094604492,10.447999954223633 48.60200119018555,14.538999557495117z"></path></g><g opacity="1" transform="matrix(1,0,0,1,233.875,214.75)"><path stroke-linecap="round" stroke-linejoin="round" fill-opacity="0" stroke="rgb(5,108,39)" stroke-opacity="1" stroke-width="6" d=" M-54.95500183105469,0.24400000274181366 C-46.847999572753906,24.6299991607666 53.641998291015625,22.465999603271484 71.71499633789062,8.506999969482422 C77.0999984741211,6.584000110626221 81.90799713134766,-10.75 74.16999816894531,-11.416000366210938 C60.76599884033203,-8.083000183105469 -37.125999450683594,-17.979000091552734 -46.4640007019043,-20.108999252319336 C-59.72100067138672,-15.364999771118164 -54.95500183105469,0.24400000274181366 -54.95500183105469,0.24400000274181366z"></path></g></g><g style="display: block;" transform="matrix(1.2107555866241455,0.021133815869688988,-0.021133815869688988,1.2107555866241455,-50.85972213745117,-54.8984260559082)" opacity="1"><g opacity="1" transform="matrix(1,0,0,1,297.17999267578125,76.67900085449219)"><path fill="rgb(31,164,219)" fill-opacity="1" d=" M-22.24799919128418,10 C-20.85700035095215,3 -18.677000045776367,-20.729999542236328 -2.2909998893737793,-25.88800048828125 C11.503000259399414,-30.229999542236328 20.518999099731445,-23.68000030517578 18.711999893188477,-13.866000175476074 C16.21299934387207,-0.2919999957084656 12.083999633789062,0.12200000137090683 6.769000053405762,17.665000915527344 C2.4260001182556152,31.999000549316406 -22.24799919128418,10 -22.24799919128418,10z"></path><path stroke-linecap="round" stroke-linejoin="round" fill-opacity="0" stroke="rgb(23,105,140)" stroke-opacity="1" stroke-width="6" d=" M-22.24799919128418,10 C-20.85700035095215,3 -18.677000045776367,-20.729999542236328 -2.2909998893737793,-25.88800048828125 C11.503000259399414,-30.229999542236328 20.518999099731445,-23.68000030517578 18.711999893188477,-13.866000175476074 C16.21299934387207,-0.2919999957084656 12.083999633789062,0.12200000137090683 6.769000053405762,17.665000915527344 C2.4260001182556152,31.999000549316406 -22.24799919128418,10 -22.24799919128418,10z"></path></g></g><g style="display: block;" transform="matrix(1.2107555866241455,0.021133815869688988,-0.021133815869688988,1.2107555866241455,-71.88114929199219,-55.265357971191406)" opacity="1"><g opacity="1" transform="matrix(1,0,0,1,247.66700744628906,154.1649932861328)"><path fill="rgb(61,169,214)" fill-opacity="1" d=" M-42.89500045776367,-71.2509994506836 C-25.562000274658203,-75.91799926757812 61.54600143432617,-75.9209976196289 73.73500061035156,-67.6259994506836 C84.60600280761719,-60.22800064086914 93.4469985961914,-44.2599983215332 94.77999877929688,-26.926000595092773 C96.11399841308594,-9.593000411987305 91.33300018310547,22.834999084472656 84.33300018310547,34.834999084472656 C77.33300018310547,46.834999084472656 67.98899841308594,58.24800109863281 56.98899841308594,61.58100128173828 C45.98899841308594,64.91400146484375 -37.9119987487793,72.51799774169922 -61.17499923706055,53.167999267578125 C-88.61399841308594,30.3439998626709 -84.7770004272461,-45.159000396728516 -70.72699737548828,-58.56999969482422 C-52.79100036621094,-75.69100189208984 -42.89500045776367,-71.2509994506836 -42.89500045776367,-71.2509994506836z"></path></g><g opacity="1" transform="matrix(1,0,0,1,247.66700744628906,154.1649932861328)"><path fill="rgb(10,126,175)" fill-opacity="0.7000000000000001" d=" M59.04100036621094,-70.92900085449219 C64.35900115966797,-70.62999725341797 70.4229965209961,-69.00499725341797 73.73500061035156,-67.6259994506836 C84.875,-60.28200149536133 93.4469985961914,-44.2599983215332 94.77999877929688,-26.926000595092773 C96.11399841308594,-9.593000411987305 91.33300018310547,22.834999084472656 84.33300018310547,34.834999084472656 C77.33300018310547,46.834999084472656 67.98899841308594,58.24800109863281 56.98899841308594,61.58100128173828 C62.630001068115234,55.382999420166016 76.46199798583984,38.24700164794922 78.18000030517578,10.22599983215332 C83.68800354003906,-13.984999656677246 79.97200012207031,-39.584999084472656 69.04100036621094,-49.073001861572266 C67.06900024414062,-61.3120002746582 59.04100036621094,-70.92900085449219 59.04100036621094,-70.92900085449219z"></path></g><g opacity="1" transform="matrix(1,0,0,1,247.66700744628906,154.1649932861328)"><path stroke-linecap="round" stroke-linejoin="round" fill-opacity="0" stroke="rgb(22,105,140)" stroke-opacity="1" stroke-width="6" d=" M-42.89500045776367,-71.2509994506836 C-21.395999908447266,-75.41699981689453 61.64899826049805,-75.86900329589844 73.73500061035156,-67.6259994506836 C84.5979995727539,-60.21699905395508 93.4469985961914,-44.2599983215332 94.77999877929688,-26.926000595092773 C96.11399841308594,-9.593000411987305 91.33300018310547,22.834999084472656 84.33300018310547,34.834999084472656 C77.33300018310547,46.834999084472656 67.98899841308594,58.24800109863281 56.98899841308594,61.58100128173828 C45.98899841308594,64.91400146484375 -37.9119987487793,72.51799774169922 -61.17499923706055,53.167999267578125 C-88.61399841308594,30.3439998626709 -84.56999969482422,-45.571998596191406 -70.72699737548828,-58.56999969482422 C-52.650001525878906,-75.54299926757812 -42.89500045776367,-71.2509994506836 -42.89500045776367,-71.2509994506836z"></path></g></g><g style="display: block;" transform="matrix(1.2107555866241455,0.021133815869688988,-0.021133815869688988,1.2107555866241455,-73.92558288574219,-58.031803131103516)" opacity="1"><g opacity="1" transform="matrix(1,0,0,1,185.93800354003906,79.18800354003906)"><path fill="rgb(61,169,214)" fill-opacity="1" d=" M25.020000457763672,7.510000228881836 C21.62299919128418,-5.5 17.906999588012695,-26.97100067138672 3.062000036239624,-30.424999237060547 C-9.645999908447266,-33.38100051879883 -17.707000732421875,-27.384000778198242 -21.729000091552734,-18.94300079345703 C-26.992000579833984,-7.89900016784668 -23.177000045776367,13.699999809265137 -13.248000144958496,25.625"></path><path stroke-linecap="round" stroke-linejoin="round" fill-opacity="0" stroke="rgb(23,105,140)" stroke-opacity="1" stroke-width="6" d=" M25.020000457763672,7.510000228881836 C21.62299919128418,-5.5 17.906999588012695,-26.97100067138672 3.062000036239624,-30.424999237060547 C-9.645999908447266,-33.38100051879883 -17.707000732421875,-27.384000778198242 -21.729000091552734,-18.94300079345703 C-26.992000579833984,-7.89900016784668 -23.177000045776367,13.699999809265137 -13.248000144958496,25.625"></path></g><g opacity="1" transform="matrix(1,0,0,1,184.5260009765625,80.11299896240234)"><path fill="rgb(252,107,182)" fill-opacity="1" d=" M7.2210001945495605,7.158999919891357 C5.486000061035156,-1.6759999990463257 2.9719998836517334,-17.775999069213867 -3.1029999256134033,-19.937000274658203 C-9.746999740600586,-22.299999237060547 -14.0600004196167,-18.395000457763672 -14.741000175476074,-11.36400032043457 C-15.291999816894531,-5.675000190734863 -13.71399974822998,9.885000228881836 -6.301000118255615,20.333999633789062"></path></g><g opacity="1" transform="matrix(1,0,0,1,184.5260009765625,80.11299896240234)"><path fill="rgb(212,67,142)" fill-opacity="1" d=" M-3.4619998931884766,10.236000061035156 C-6.215000152587891,1.0470000505447388 -11.229000091552734,-14.145000457763672 -3.1029999256134033,-19.937000274658203 C-9.746999740600586,-22.299999237060547 -14.0600004196167,-18.395000457763672 -14.741000175476074,-11.36400032043457 C-15.291999816894531,-5.675000190734863 -13.71399974822998,9.885000228881836 -6.301000118255615,20.333999633789062"></path></g><g opacity="1" transform="matrix(1,0,0,1,184.5260009765625,80.11299896240234)"><path stroke-linecap="round" stroke-linejoin="round" fill-opacity="0" stroke="rgb(23,105,140)" stroke-opacity="1" stroke-width="6" d=" M7.2210001945495605,7.158999919891357 C5.486000061035156,-1.6759999990463257 2.9719998836517334,-17.775999069213867 -3.1029999256134033,-19.937000274658203 C-9.746999740600586,-22.299999237060547 -14.0600004196167,-18.395000457763672 -14.741000175476074,-11.36400032043457 C-15.291999816894531,-5.675000190734863 -13.71399974822998,9.885000228881836 -6.301000118255615,20.333999633789062"></path></g><g opacity="1" transform="matrix(1,0,0,1,180.5399932861328,102.91699981689453)"><path fill="rgb(61,169,214)" fill-opacity="1" d=" M10.942999839782715,2.8889999389648438 C4.749000072479248,4.127999782562256 -1.8799999952316284,9.399999618530273 -4.798999786376953,9.83899974822998 C-18.19300079345703,11.854000091552734 -16.545000076293945,-4.873000144958496 -8.197999954223633,-8.965999603271484 C-5.186999797821045,-10.442999839782715 3.071000099182129,-14.364999771118164 13.295999526977539,-15.789999961853027"></path><path stroke-linecap="round" stroke-linejoin="round" fill-opacity="0" stroke="rgb(23,105,140)" stroke-opacity="1" stroke-width="6" d=" M10.942999839782715,2.8889999389648438 C4.749000072479248,4.127999782562256 -1.8799999952316284,9.399999618530273 -4.798999786376953,9.83899974822998 C-18.19300079345703,11.854000091552734 -16.545000076293945,-4.873000144958496 -8.197999954223633,-8.965999603271484 C-5.186999797821045,-10.442999839782715 3.071000099182129,-14.364999771118164 13.295999526977539,-15.789999961853027"></path></g></g><g style="display: block;" transform="matrix(1.2107555866241455,0.021133815869688988,-0.021133815869688988,1.2107555866241455,-82.8797607421875,-55.458343505859375)" opacity="1"><g opacity="1" transform="matrix(1,0,0,1,247.31300354003906,128.843994140625)"><path fill="rgb(61,169,214)" fill-opacity="1" d=" M-3.73799991607666,-25.920000076293945 C7.604000091552734,-21.827999114990234 10.562999725341797,-14.744999885559082 6.438000202178955,5.906000137329102 C4.765999794006348,14.279000282287598 2.6459999084472656,25.336000442504883 -11.772000312805176,24.702999114990234"></path><path stroke-linecap="round" stroke-linejoin="round" fill-opacity="0" stroke="rgb(23,105,140)" stroke-opacity="1" stroke-width="6" d=" M-3.73799991607666,-25.920000076293945 C7.604000091552734,-21.827999114990234 10.562999725341797,-14.744999885559082 6.438000202178955,5.906000137329102 C4.765999794006348,14.279000282287598 2.6459999084472656,25.336000442504883 -11.772000312805176,24.702999114990234"></path></g></g><g style="display: block;" transform="matrix(1.2107555866241455,0.021133815869688988,-0.021133815869688988,1.2107555866241455,-82.8797607421875,-55.458343505859375)" opacity="1"><g opacity="1" transform="matrix(1,0,0,1,228.54200744628906,127.91699981689453)"><path fill="rgb(255,255,255)" fill-opacity="1" d=" M-30.54199981689453,-1.4170000553131104 C-31.625,9.083000183105469 -20.861000061035156,15.967000007629395 0.125,16.750999450683594 C22.43199920654297,17.583999633789062 30.625,11.25100040435791 31.125,1.2510000467300415 C31.625,-8.74899959564209 11.958000183105469,-17.25 -1.5420000553131104,-17.41699981689453 C-15.041999816894531,-17.583999633789062 -29.354000091552734,-12.932999610900879 -30.54199981689453,-1.4170000553131104z"></path><path stroke-linecap="round" stroke-linejoin="round" fill-opacity="0" stroke="rgb(23,105,140)" stroke-opacity="1" stroke-width="6" d=" M-30.54199981689453,-1.4170000553131104 C-31.625,9.083000183105469 -20.861000061035156,15.967000007629395 0.125,16.750999450683594 C22.43199920654297,17.583999633789062 30.625,11.25100040435791 31.125,1.2510000467300415 C31.625,-8.74899959564209 11.958000183105469,-17.25 -1.5420000553131104,-17.41699981689453 C-15.041999816894531,-17.583999633789062 -29.354000091552734,-12.932999610900879 -30.54199981689453,-1.4170000553131104z"></path></g></g><g style="display: block;" transform="matrix(1.2107555866241455,0.021133815869688988,-0.021133815869688988,1.2107555866241455,-87.87886047363281,-55.54459762573242)" opacity="1"><g opacity="1" transform="matrix(1,0,0,1,329.781005859375,130.718994140625)"><path fill="rgb(61,169,214)" fill-opacity="1" d=" M1.3589999675750732,-25.731000900268555 C7.335999965667725,-23.777000427246094 15.666999816894531,-18.398000717163086 14.928999900817871,-9.208999633789062 C13.833000183105469,4.448999881744385 18.253999710083008,7.835000038146973 16.40999984741211,14.711999893188477 C14.565999984741211,21.58799934387207 9.048999786376953,24.735000610351562 4.499000072479248,25.30900001525879"></path><path stroke-linecap="round" stroke-linejoin="round" fill-opacity="0" stroke="rgb(23,105,140)" stroke-opacity="1" stroke-width="6" d=" M1.3589999675750732,-25.731000900268555 C7.335999965667725,-23.777000427246094 15.666999816894531,-18.398000717163086 14.928999900817871,-9.208999633789062 C13.833000183105469,4.448999881744385 18.253999710083008,7.835000038146973 16.40999984741211,14.711999893188477 C14.565999984741211,21.58799934387207 9.048999786376953,24.735000610351562 4.499000072479248,25.30900001525879"></path></g></g><g style="display: block;" transform="matrix(1.2107555866241455,0.021133815869688988,-0.021133815869688988,1.2107555866241455,-87.87886047363281,-55.54459762573242)" opacity="1"><g opacity="1" transform="matrix(1,0,0,1,315.76300048828125,131.69400024414062)"><path fill="rgb(255,255,255)" fill-opacity="1" d=" M-28.42799949645996,-0.05400000140070915 C-28.218000411987305,8.13700008392334 -21.099000930786133,15.663000106811523 -1.8250000476837158,16.600000381469727 C21.16900062561035,17.716999053955078 33.09600067138672,13.20300006866455 33.06999969482422,1.9730000495910645 C33.03099822998047,-14.723999977111816 10.947999954223633,-17.464000701904297 -2.552000045776367,-17.631000518798828 C-16.052000045776367,-17.797000885009766 -28.76099967956543,-13.053999900817871 -28.42799949645996,-0.05400000140070915z"></path><path stroke-linecap="round" stroke-linejoin="round" fill-opacity="0" stroke="rgb(23,105,140)" stroke-opacity="1" stroke-width="6" d=" M-28.42799949645996,-0.05400000140070915 C-28.218000411987305,8.13700008392334 -21.099000930786133,15.663000106811523 -1.8250000476837158,16.600000381469727 C21.16900062561035,17.716999053955078 33.09600067138672,13.20300006866455 33.06999969482422,1.9730000495910645 C33.03099822998047,-14.723999977111816 10.947999954223633,-17.464000701904297 -2.552000045776367,-17.631000518798828 C-16.052000045776367,-17.797000885009766 -28.76099967956543,-13.053999900817871 -28.42799949645996,-0.05400000140070915z"></path></g></g><g style="display: block;" transform="matrix(1.2107555866241455,0.021133815869688988,-0.021133815869688988,1.2107555866241455,-87.36146545410156,-56.53696823120117)" opacity="1"><g opacity="1" transform="matrix(1,0,0,1,227.32200622558594,128.625)"><path fill="rgb(0,0,0)" fill-opacity="1" d=" M10.375,0.2199999988079071 C10.375,5.949999809265137 5.730000019073486,9.625 0,9.625 C-5.730000019073486,9.625 -10.375,5.949999809265137 -10.375,0.2199999988079071 C-10.375,-5.510000228881836 -5.730000019073486,-9.625 0,-9.625 C5.730000019073486,-9.625 10.375,-5.510000228881836 10.375,0.2199999988079071z"></path></g><g opacity="1" transform="matrix(1,0,0,1,230.96600341796875,128.28900146484375)"><path fill="rgb(255,255,255)" fill-opacity="1" d=" M4.172999858856201,0.09300000220537186 C4.172999858856201,2.51200008392334 2.303999900817871,4.064000129699707 0,4.064000129699707 C-2.305000066757202,4.064000129699707 -4.172999858856201,2.51200008392334 -4.172999858856201,0.09300000220537186 C-4.172999858856201,-2.3259999752044678 -2.305000066757202,-4.064000129699707 0,-4.064000129699707 C2.303999900817871,-4.064000129699707 4.172999858856201,-2.3259999752044678 4.172999858856201,0.09300000220537186z"></path></g></g><g style="display: none;" transform="matrix(1.2107555866241455,0.021133815869688988,-0.021133815869688988,1.2107555866241455,-82.8797607421875,-55.458343505859375)" opacity="1"><g opacity="1" transform="matrix(1,0,0,1,228.54200744628906,127.91699981689453)"><path fill="rgb(61,169,214)" fill-opacity="1" d=" M-30.54199981689453,-1.4170000553131104 C-25.264999389648438,-28.304000854492188 29.961000442504883,-17.87700080871582 31.125,1.2510000467300415 C31.625,-8.74899959564209 11.958000183105469,-17.25 -1.5420000553131104,-17.41699981689453 C-15.041999816894531,-17.583999633789062 -29.354000091552734,-12.932999610900879 -30.54199981689453,-1.4170000553131104z"></path><path stroke-linecap="round" stroke-linejoin="round" fill-opacity="0" stroke="rgb(23,105,140)" stroke-opacity="1" stroke-width="6" d=" M-30.54199981689453,-1.4170000553131104 C-25.264999389648438,-28.304000854492188 29.961000442504883,-17.87700080871582 31.125,1.2510000467300415 C31.625,-8.74899959564209 11.958000183105469,-17.25 -1.5420000553131104,-17.41699981689453 C-15.041999816894531,-17.583999633789062 -29.354000091552734,-12.932999610900879 -30.54199981689453,-1.4170000553131104z"></path></g></g><g style="display: block;" transform="matrix(1.2107555866241455,0.021133815869688988,-0.021133815869688988,1.2107555866241455,-87.36146545410156,-56.53693771362305)" opacity="1"><g opacity="1" transform="matrix(1,0,0,1,315.91400146484375,131.2989959716797)"><path fill="rgb(0,0,0)" fill-opacity="1" d=" M10.375,0.21899999678134918 C10.375,5.948999881744385 5.729000091552734,9.625 0,9.625 C-5.730000019073486,9.625 -10.375,5.948999881744385 -10.375,0.21899999678134918 C-10.375,-5.510000228881836 -5.730000019073486,-9.625 0,-9.625 C5.729000091552734,-9.625 10.375,-5.510000228881836 10.375,0.21899999678134918z"></path></g><g opacity="1" transform="matrix(1,0,0,1,319.5580139160156,130.96299743652344)"><path fill="rgb(255,255,255)" fill-opacity="1" d=" M4.172999858856201,0.09200000017881393 C4.172999858856201,2.510999917984009 2.303999900817871,4.064000129699707 0,4.064000129699707 C-2.305000066757202,4.064000129699707 -4.171999931335449,2.510999917984009 -4.171999931335449,0.09200000017881393 C-4.171999931335449,-2.3269999027252197 -2.305000066757202,-4.064000129699707 0,-4.064000129699707 C2.303999900817871,-4.064000129699707 4.172999858856201,-2.3269999027252197 4.172999858856201,0.09200000017881393z"></path></g></g><g style="display: none;" transform="matrix(1.2107555866241455,0.021133815869688988,-0.021133815869688988,1.2107555866241455,-87.87886047363281,-55.54459762573242)" opacity="1"><g opacity="1" transform="matrix(1,0,0,1,315.76300048828125,131.69400024414062)"><path fill="rgb(61,169,214)" fill-opacity="1" d=" M-28.759958267211914,-0.30720990896224976 C-28.872602462768555,-7.862010955810547 -21.804611206054688,-16.666494369506836 -2.530611515045166,-15.72949504852295 C20.463388442993164,-14.612495422363281 32.55950927734375,-9.068848609924316 33.06999969482422,1.9730000495910645 C33.03099822998047,-14.723999977111816 10.807016372680664,-17.461517333984375 -2.692983627319336,-17.628517150878906 C-16.192983627319336,-17.794517517089844 -29.09295654296875,-13.307209968566895 -28.759958267211914,-0.30720990896224976z"></path><path stroke-linecap="round" stroke-linejoin="round" fill-opacity="0" stroke="rgb(23,105,140)" stroke-opacity="1" stroke-width="6" d=" M-28.759958267211914,-0.30720990896224976 C-28.872602462768555,-7.862010955810547 -21.804611206054688,-16.666494369506836 -2.530611515045166,-15.72949504852295 C20.463388442993164,-14.612495422363281 32.55950927734375,-9.068848609924316 33.06999969482422,1.9730000495910645 C33.03099822998047,-14.723999977111816 10.807016372680664,-17.461517333984375 -2.692983627319336,-17.628517150878906 C-16.192983627319336,-17.794517517089844 -29.09295654296875,-13.307209968566895 -28.759958267211914,-0.30720990896224976z"></path></g></g><g style="display: block;" transform="matrix(1.2107555866241455,0.021133815869688988,-0.021133815869688988,1.2107555866241455,-71.88114929199219,-55.265357971191406)" opacity="1"><g opacity="1" transform="matrix(1,0,0,1,259.90899658203125,180.26699829101562)"><path fill="rgb(252,108,182)" fill-opacity="1" d=" M57.448001861572266,-14.911999702453613 C75.57499694824219,-21.298999786376953 76.47699737548828,-10.333999633789062 77.05799865722656,-6.630000114440918 C77.63899993896484,-2.9260001182556152 73.61299896240234,6.054999828338623 62.83700180053711,10.468999862670898 C45.612998962402344,17.000999450683594 -20.444000244140625,29.976999282836914 -70.19400024414062,5.559999942779541 C-89.58699798583984,-3.9579999446868896 -79.11100006103516,-25.405000686645508 -61.152000427246094,-17.023000717163086 C-40.87099838256836,-7.557000160217285 -10.892000198364258,-7.083000183105469 3.2780001163482666,-7.070000171661377 C20.659000396728516,-7.053999900817871 43.314998626708984,-11.543000221252441 57.448001861572266,-14.911999702453613z"></path></g><g opacity="1" transform="matrix(1,0,0,1,259.90899658203125,180.26699829101562)"><path fill="rgb(172,27,102)" fill-opacity="0.5" d=" M64.43800354003906,-16.68600082397461 C73.7040023803711,-18.6200008392334 76.47699737548828,-10.333999633789062 77.05799865722656,-6.630000114440918 C77.63899993896484,-2.9260001182556152 73.61299896240234,6.054999828338623 62.83700180053711,10.468999862670898 C60.34700012207031,11.413000106811523 56.83700180053711,12.493000030517578 52.50299835205078,13.574000358581543 C55.939998626708984,10.597999572753906 58.6150016784668,4.150000095367432 53.39500045776367,0.30300000309944153 C59.64500045776367,-1.8559999465942383 61.71099853515625,-13.66100025177002 55.59600067138672,-14.625 C61.922000885009766,-15.821000099182129 59.56999969482422,-15.526000022888184 64.43800354003906,-16.68600082397461z"></path></g><g opacity="1" transform="matrix(1,0,0,1,259.90899658203125,180.26699829101562)"><path stroke-linecap="round" stroke-linejoin="round" fill-opacity="0" stroke="rgb(172,26,101)" stroke-opacity="1" stroke-width="6" d=" M57.448001861572266,-14.911999702453613 C75.57499694824219,-21.298999786376953 76.47699737548828,-10.333999633789062 77.05799865722656,-6.630000114440918 C77.63899993896484,-2.9260001182556152 73.61299896240234,6.054999828338623 62.83700180053711,10.468999862670898 C45.612998962402344,17.000999450683594 -20.444000244140625,29.976999282836914 -70.19400024414062,5.559999942779541 C-89.58699798583984,-3.9579999446868896 -79.11100006103516,-25.405000686645508 -61.152000427246094,-17.023000717163086 C-40.87099838256836,-7.557000160217285 -10.892000198364258,-7.083000183105469 3.2780001163482666,-7.070000171661377 C20.659000396728516,-7.053999900817871 43.314998626708984,-11.543000221252441 57.448001861572266,-14.911999702453613z"></path></g><g opacity="1" transform="matrix(1,0,0,1,269.8420104980469,184.75)"><path stroke-linecap="round" stroke-linejoin="round" fill-opacity="0" stroke="rgb(172,26,101)" stroke-opacity="1" stroke-width="6" d=" M-83.43399810791016,-12.019000053405762 C-45.84199905395508,6.423999786376953 17.52899932861328,7.835000038146973 59.5890007019043,-9.770000457763672"></path></g></g><g style="display: block;" transform="matrix(1.2002331018447876,0.21163350343704224,-0.21163350343704224,1.2002331018447876,41.38199234008789,-69.93842315673828)" opacity="1"><g opacity="1" transform="matrix(1,0,0,1,161.75,400.1669921875)"><path fill="rgb(61,169,214)" fill-opacity="1" d=" M-60.20100021362305,13.602999687194824 C-54.04899978637695,-0.9269999861717224 -39.775001525878906,-8.73799991607666 -31.16200065612793,-15.9350004196167 C-31.16200065612793,-15.9350004196167 14.845999717712402,-57.05400085449219 24.3700008392334,-63.928001403808594 C51.20399856567383,-56.095001220703125 48.46200180053711,-23.934999465942383 48.46200180053711,-23.934999465942383 C5.295000076293945,10.5649995803833 -9.652999877929688,56.49399948120117 -49.435001373291016,52.560001373291016"></path></g><g opacity="1" transform="matrix(1,0,0,1,161.75,400.1669921875)"><path fill="rgb(36,148,194)" fill-opacity="1" d=" M-28.385000228881836,42.35599899291992 C-13.730999946594238,39.349998474121094 2.61899995803833,7.567999839782715 32.72700119018555,-15.503999710083008 C38.35900115966797,-19.617000579833984 41.005001068115234,-17.158000946044922 41.005001068115234,-17.158000946044922 C-0.335999995470047,18.450000762939453 -9.652999877929688,56.49399948120117 -49.435001373291016,52.560001373291016"></path></g><g opacity="1" transform="matrix(1,0,0,1,162.15899658203125,400.2019958496094)"><path stroke-linecap="round" stroke-linejoin="round" fill-opacity="0" stroke="rgb(24,105,141)" stroke-opacity="1" stroke-width="6" d=" M-60.20100021362305,13.602999687194824 C-54.04899978637695,-0.9269999861717224 -39.775001525878906,-8.73799991607666 -31.16200065612793,-15.9350004196167 C-31.16200065612793,-15.9350004196167 14.845999717712402,-57.05400085449219 24.3700008392334,-63.928001403808594 C51.20399856567383,-56.095001220703125 48.46200180053711,-23.934999465942383 48.46200180053711,-23.934999465942383 C5.295000076293945,10.5649995803833 -9.652999877929688,56.49399948120117 -49.435001373291016,52.560001373291016"></path></g></g><g style="display: block;" transform="matrix(1.2175886631011963,-0.05316106602549553,0.05316106602549553,1.2175886631011963,-62.72828674316406,-20.900096893310547)" opacity="1"><g opacity="1" transform="matrix(1,0,0,1,0,0)"><path fill="rgb(61,169,214)" fill-opacity="1" d=" M198.7689971923828,332.7179870605469 C184.4340057373047,328.1059875488281 171.69200134277344,375.7950134277344 200.61500549316406,380.9230041503906 C220.6199951171875,384.4700012207031 222.35899353027344,340.3080139160156 198.7689971923828,332.7179870605469z"></path></g><g opacity="1" transform="matrix(1,0,0,1,227.57000732421875,337.69500732421875)"><path fill="rgb(61,169,214)" fill-opacity="1" d=" M-40.49300003051758,-1.4259999990463257 C-33.7239990234375,-7.644000053405762 -25.86199951171875,-10.027999877929688 -23.69499969482422,-12.694999694824219 C-21.52899932861328,-15.362000465393066 -17.19499969482422,-24.56999969482422 -18.06999969482422,-31.94499969482422 C-18.6200008392334,-36.57899856567383 -27.361000061035156,-50.49100112915039 -25.069000244140625,-53.36600112915039 C-22.718000411987305,-56.314998626708984 -11.237000465393066,-54.36199951171875 -7.236999988555908,-44.69499969482422 C-3.236999988555908,-35.02799987792969 -4.216000080108643,-24.525999069213867 -3.944999933242798,-19.81999969482422 C-3.236999988555908,-7.5279998779296875 12.468000411987305,-4.935999870300293 18.996000289916992,-2.6019999980926514 C23.05500030517578,1.9299999475479126 27.38800048828125,6.263000011444092 33.76300048828125,13.305000305175781 C38.23699951171875,18.246999740600586 33.76300048828125,24.05500030517578 31.18000030517578,23.38800048828125 C33.18000030517578,25.472000122070312 34.34600067138672,34.38800048828125 27.59600067138672,33.38800048828125 C30.659000396728516,36.07600021362305 30.68000030517578,43.97200012207031 24.93000030517578,44.55500030517578 C26.80500030517578,47.43000030517578 27.492000579833984,53.617000579833984 22.18000030517578,55.05500030517578 C16.742000579833984,56.242000579833984 10.635000228881836,56.31399917602539 5.263000011444092,55.63800048828125 C3.125,55.68199920654297 0.09600000083446503,54.55500030517578 -3.1080000400543213,53.143001556396484 C-9.524999618530273,54.560001373291016 -17.673999786376953,51.25699996948242 -22.56999969482422,46.30500030517578 C-24.801000595092773,44.04899978637695 -28.08300018310547,44.099998474121094 -29.18400001525879,45.05500030517578"></path><path stroke-linecap="round" stroke-linejoin="round" fill-opacity="0" stroke="rgb(24,105,141)" stroke-opacity="1" stroke-width="6" d=" M-40.49300003051758,-1.4259999990463257 C-33.7239990234375,-7.644000053405762 -25.86199951171875,-10.027999877929688 -23.69499969482422,-12.694999694824219 C-21.52899932861328,-15.362000465393066 -17.19499969482422,-24.56999969482422 -18.06999969482422,-31.94499969482422 C-18.6200008392334,-36.57899856567383 -27.361000061035156,-50.49100112915039 -25.069000244140625,-53.36600112915039 C-22.718000411987305,-56.314998626708984 -11.237000465393066,-54.36199951171875 -7.236999988555908,-44.69499969482422 C-3.236999988555908,-35.02799987792969 -4.216000080108643,-24.525999069213867 -3.944999933242798,-19.81999969482422 C-3.236999988555908,-7.5279998779296875 12.468000411987305,-4.935999870300293 18.996000289916992,-2.6019999980926514 C23.05500030517578,1.9299999475479126 27.38800048828125,6.263000011444092 33.76300048828125,13.305000305175781 C38.23699951171875,18.246999740600586 33.76300048828125,24.05500030517578 31.18000030517578,23.38800048828125 C33.18000030517578,25.472000122070312 34.34600067138672,34.38800048828125 27.59600067138672,33.38800048828125 C30.659000396728516,36.07600021362305 30.68000030517578,43.97200012207031 24.93000030517578,44.55500030517578 C26.80500030517578,47.43000030517578 27.492000579833984,53.617000579833984 22.18000030517578,55.05500030517578 C16.742000579833984,56.242000579833984 10.635000228881836,56.31399917602539 5.263000011444092,55.63800048828125 C3.125,55.68199920654297 0.09600000083446503,54.55500030517578 -3.1080000400543213,53.143001556396484 C-9.524999618530273,54.560001373291016 -17.673999786376953,51.25699996948242 -22.56999969482422,46.30500030517578 C-24.801000595092773,44.04899978637695 -28.08300018310547,44.099998474121094 -29.18400001525879,45.05500030517578"></path></g><g opacity="1" transform="matrix(1,0,0,1,249.81300354003906,381.375)"><path fill="rgb(61,169,214)" fill-opacity="1" d=" M-1.2419999837875366,-0.42500001192092896 C-1.2419999837875366,-0.42500001192092896 2.687999963760376,0.875 2.687999963760376,0.875"></path><path stroke-linecap="round" stroke-linejoin="round" fill-opacity="0" stroke="rgb(24,105,141)" stroke-opacity="1" stroke-width="6" d=" M-1.2419999837875366,-0.42500001192092896 C-1.2419999837875366,-0.42500001192092896 2.687999963760376,0.875 2.687999963760376,0.875"></path></g><g opacity="1" transform="matrix(1,0,0,1,251.64599609375,369.5419921875)"><path fill="rgb(61,169,214)" fill-opacity="1" d=" M-1.4739999771118164,-0.6859999895095825 C-1.4739999771118164,-0.6859999895095825 3.5209999084472656,1.5420000553131104 3.5209999084472656,1.5420000553131104"></path><path stroke-linecap="round" stroke-linejoin="round" fill-opacity="0" stroke="rgb(24,105,141)" stroke-opacity="1" stroke-width="6" d=" M-1.4739999771118164,-0.6859999895095825 C-1.4739999771118164,-0.6859999895095825 3.5209999084472656,1.5420000553131104 3.5209999084472656,1.5420000553131104"></path></g><g opacity="1" transform="matrix(1,0,0,1,254.281005859375,356.97900390625)"><path fill="rgb(61,169,214)" fill-opacity="1" d=" M-2.678999900817871,-2.1530001163482666 C-2.678999900817871,-2.1530001163482666 4.468999862670898,4.104000091552734 4.468999862670898,4.104000091552734"></path><path stroke-linecap="round" stroke-linejoin="round" fill-opacity="0" stroke="rgb(24,105,141)" stroke-opacity="1" stroke-width="6" d=" M-2.678999900817871,-2.1530001163482666 C-2.678999900817871,-2.1530001163482666 4.468999862670898,4.104000091552734 4.468999862670898,4.104000091552734"></path></g><g opacity="1" transform="matrix(1,0,0,1,241.16700744628906,364.4200134277344)"><path fill="rgb(61,169,214)" fill-opacity="1" d=" M5.291999816894531,-29.128000259399414 C8.333999633789062,-27.920000076293945 7.809000015258789,-22.70599937438965 7.395999908447266,-20.336999893188477 C6.583000183105469,-15.670000076293945 3.2920000553131104,-16.75 2.6670000553131104,-13.836999893188477 C2.375,-11.420000076293945 5.693999767303467,-8.885000228881836 5.372000217437744,-4.793000221252441 C4.915999889373779,0.996999979019165 1.5,-0.09200000017881393 0.9169999957084656,2.3299999237060547 C0.5,4.163000106811523 3.572000026702881,5.2820000648498535 2.749000072479248,10.496999740600586 C1.9989999532699585,15.246999740600586 -1.0829999446868896,13.996999740600586 -1.8329999446868896,16.329999923706055 C-2.5829999446868896,18.329999923706055 0.3409999907016754,21.38800048828125 -0.3499999940395355,24.250999450683594 C-1.3339999914169312,28.329999923706055 -2.5409998893737793,29.152999877929688 -6.679999828338623,28.937999725341797"></path><path stroke-linecap="round" stroke-linejoin="round" fill-opacity="0" stroke="rgb(24,105,141)" stroke-opacity="1" stroke-width="6" d=" M5.291999816894531,-29.128000259399414 C8.333999633789062,-27.920000076293945 7.809000015258789,-22.70599937438965 7.395999908447266,-20.336999893188477 C6.583000183105469,-15.670000076293945 3.2920000553131104,-16.75 2.6670000553131104,-13.836999893188477 C2.375,-11.420000076293945 5.693999767303467,-8.885000228881836 5.372000217437744,-4.793000221252441 C4.915999889373779,0.996999979019165 1.5,-0.09200000017881393 0.9169999957084656,2.3299999237060547 C0.5,4.163000106811523 3.572000026702881,5.2820000648498535 2.749000072479248,10.496999740600586 C1.9989999532699585,15.246999740600586 -1.0829999446868896,13.996999740600586 -1.8329999446868896,16.329999923706055 C-2.5829999446868896,18.329999923706055 0.3409999907016754,21.38800048828125 -0.3499999940395355,24.250999450683594 C-1.3339999914169312,28.329999923706055 -2.5409998893737793,29.152999877929688 -6.679999828338623,28.937999725341797"></path></g></g><g style="display: block;" transform="matrix(1.2112244367599487,0.11526817083358765,-0.13220271468162537,1.143303632736206,10.6385498046875,-156.13145446777344)" opacity="1"><g opacity="1" transform="matrix(1,0,0,1,358.2799987792969,335.875)"><path fill="rgb(61,169,214)" fill-opacity="1" d=" M-43.9630012512207,-21.30699920654297 C-31.46299934387207,-14.59000015258789 -13.920000076293945,35.79800033569336 -2.1480000019073486,55.915000915527344 C15.727999687194824,86.46299743652344 34.01900100708008,96.29399871826172 47.48899841308594,97.47100067138672 C50.676998138427734,97.7490005493164 57.64099884033203,100.53199768066406 64.68199920654297,97.11100006103516 C67.1510009765625,95.91200256347656 66.61199951171875,91.22100067138672 66.11199951171875,83.72100067138672 C65.61199951171875,76.22100067138672 65.47699737548828,48.242000579833984 48.91600036621094,26.514999389648438 C30.916000366210938,2.8989999294281006 -5.809999942779541,-38.14400100708008 -25.608999252319336,-53.34000015258789 C-40.9630012512207,-53.34000015258789 -51.4630012512207,-36.70399856567383 -43.9630012512207,-21.30699920654297z"></path></g><g opacity="1" transform="matrix(1,0,0,1,358.2799987792969,335.875)"><path stroke-linecap="round" stroke-linejoin="round" fill-opacity="0" stroke="rgb(24,105,141)" stroke-opacity="1" stroke-width="6" d=" M66.50800323486328,90.15299987792969 C66.44300079345703,88.32499694824219 66.2750015258789,86.1729965209961 66.11199951171875,83.72100067138672 C65.61199951171875,76.22100067138672 65.47699737548828,48.242000579833984 48.91600036621094,26.514999389648438 C30.916000366210938,2.8989999294281006 -5.809999942779541,-38.14400100708008 -25.608999252319336,-53.34000015258789 C-40.9630012512207,-53.34000015258789 -51.4630012512207,-36.70399856567383 -43.9630012512207,-21.30699920654297 C-43.9630012512207,-21.30699920654297 -43.9630012512207,-21.30699920654297 -43.9630012512207,-21.30699920654297 C-31.46299934387207,-14.59000015258789 -13.920000076293945,35.79800033569336 -2.1480000019073486,55.915000915527344 C15.727999687194824,86.46299743652344 34.01900100708008,96.29399871826172 47.48899841308594,97.47100067138672 C50.676998138427734,97.7490005493164 57.64099884033203,100.53199768066406 64.68199920654297,97.11100006103516 C66.34400177001953,96.30400085449219 66.64299774169922,93.91500091552734 66.50800323486328,90.15299987792969"></path></g></g><g style="display: block;" transform="matrix(1.2112244367599487,0.11526817083358765,-0.13220271468162537,1.143303632736206,33.17859649658203,-136.91859436035156)" opacity="1"><g opacity="1" transform="matrix(1,0,0,1,0,0)"><path fill="rgb(61,169,214)" fill-opacity="1" d=" M305.4360046386719,265.84600830078125 C263.7950134277344,246.9739990234375 272.6159973144531,307.2820129394531 309.7439880371094,308.9230041503906 C325.4179992675781,309.6159973144531 329.0249938964844,287.3840026855469 328.614990234375,282.0509948730469 C328.2049865722656,276.7179870605469 318.7590026855469,271.8840026855469 305.4360046386719,265.84600830078125z"></path></g><g opacity="1" transform="matrix(1,0,0,1,304.48699951171875,247.16700744628906)"><path fill="rgb(61,169,214)" fill-opacity="1" d=" M24.724000930786133,34.33300018310547 C15.180000305175781,17.33300018310547 -4.988999843597412,8.833000183105469 -7.988999843597412,-10.333000183105469 C-9.710000038146973,-21.325000762939453 -6.3379998207092285,-29.69300079345703 -11.987000465393066,-32.999000549316406 C-15.220000267028809,-34.89099884033203 -21.047000885009766,-34.018001556396484 -22.98699951171875,-18.66699981689453 C-24.722999572753906,-4.925000190734863 -17.15399932861328,-6.083000183105469 -19.31999969482422,12.041999816894531"></path><path stroke-linecap="round" stroke-linejoin="round" fill-opacity="0" stroke="rgb(24,105,141)" stroke-opacity="1" stroke-width="6" d=" M24.724000930786133,34.33300018310547 C15.180000305175781,17.33300018310547 -4.988999843597412,8.833000183105469 -7.988999843597412,-10.333000183105469 C-9.710000038146973,-21.325000762939453 -6.3379998207092285,-29.69300079345703 -11.987000465393066,-32.999000549316406 C-15.220000267028809,-34.89099884033203 -21.047000885009766,-34.018001556396484 -22.98699951171875,-18.66699981689453 C-24.722999572753906,-4.925000190734863 -17.15399932861328,-6.083000183105469 -19.31999969482422,12.041999816894531"></path></g><g opacity="1" transform="matrix(1,0,0,1,278.6669921875,292.6669921875)"><path fill="rgb(61,169,214)" fill-opacity="1" d=" M13.333000183105469,-33.33399963378906 C5.165999889373779,-33.5 -12.571000099182129,-32.82099914550781 -18.90399932861328,-32.654998779296875 C-22.465999603271484,-32.362998962402344 -27.972999572753906,-19.934999465942383 -27.972999572753906,-19.934999465942383 C-30.972999572753906,-14.4350004196167 -28.211000442504883,-12.767999649047852 -26.924999237060547,-10.767999649047852 C-31.805999755859375,-3.2679998874664307 -26.972999572753906,2.7320001125335693 -24.638999938964844,3.7320001125335693 C-28.305999755859375,9.732000350952148 -24.472999572753906,16.898000717163086 -18.638999938964844,16.898000717163086 C-19.638999938964844,23.23200035095215 -18.472999572753906,25.73200035095215 -13.638999938964844,27.23200035095215 C-12.8100004196167,27.726999282836914 -11.031000137329102,28.42300033569336 -9.170999526977539,29.023000717163086 C-5.692999839782715,29.579999923706055 20.666000366210938,33.5 34.66600036621094,15.5"></path><path stroke-linecap="round" stroke-linejoin="round" fill-opacity="0" stroke="rgb(24,105,141)" stroke-opacity="1" stroke-width="6" d=" M13.333000183105469,-33.33399963378906 C5.165999889373779,-33.5 -12.571000099182129,-32.82099914550781 -18.90399932861328,-32.654998779296875 C-22.465999603271484,-32.362998962402344 -27.972999572753906,-19.934999465942383 -27.972999572753906,-19.934999465942383 C-30.972999572753906,-14.4350004196167 -28.211000442504883,-12.767999649047852 -26.924999237060547,-10.767999649047852 C-31.805999755859375,-3.2679998874664307 -26.972999572753906,2.7320001125335693 -24.638999938964844,3.7320001125335693 C-28.305999755859375,9.732000350952148 -24.472999572753906,16.898000717163086 -18.638999938964844,16.898000717163086 C-19.638999938964844,23.23200035095215 -18.472999572753906,25.73200035095215 -13.638999938964844,27.23200035095215 C-12.8100004196167,27.726999282836914 -11.031000137329102,28.42300033569336 -9.170999526977539,29.023000717163086 C-5.692999839782715,29.579999923706055 20.666000366210938,33.5 34.66600036621094,15.5"></path></g><g opacity="1" transform="matrix(1,0,0,1,255.35699462890625,281)"><path fill="rgb(61,169,214)" fill-opacity="1" d=" M2.562000036239624,-1.100000023841858 C2.562000036239624,-1.100000023841858 -3.615999937057495,0.8989999890327454 -3.615999937057495,0.8989999890327454"></path><path stroke-linecap="round" stroke-linejoin="round" fill-opacity="0" stroke="rgb(24,105,141)" stroke-opacity="1" stroke-width="6" d=" M2.562000036239624,-1.100000023841858 C2.562000036239624,-1.100000023841858 -3.615999937057495,0.8989999890327454 -3.615999937057495,0.8989999890327454"></path></g><g opacity="1" transform="matrix(1,0,0,1,257.2019958496094,295.75)"><path fill="rgb(61,169,214)" fill-opacity="1" d=" M2.5999999046325684,-0.24300000071525574 C2.5999999046325684,-0.24300000071525574 -3.174999952316284,0.6489999890327454 -3.174999952316284,0.6489999890327454"></path><path stroke-linecap="round" stroke-linejoin="round" fill-opacity="0" stroke="rgb(24,105,141)" stroke-opacity="1" stroke-width="6" d=" M2.5999999046325684,-0.24300000071525574 C2.5999999046325684,-0.24300000071525574 -3.174999952316284,0.6489999890327454 -3.174999952316284,0.6489999890327454"></path></g><g opacity="1" transform="matrix(1,0,0,1,261.6669921875,309.4169921875)"><path fill="rgb(61,169,214)" fill-opacity="1" d=" M1.6180000305175781,-0.3449999988079071 C1.6180000305175781,-0.3449999988079071 -1.6399999856948853,0.14900000393390656 -1.6399999856948853,0.14900000393390656"></path><path stroke-linecap="round" stroke-linejoin="round" fill-opacity="0" stroke="rgb(24,105,141)" stroke-opacity="1" stroke-width="6" d=" M1.6180000305175781,-0.3449999988079071 C1.6180000305175781,-0.3449999988079071 -1.6399999856948853,0.14900000393390656 -1.6399999856948853,0.14900000393390656"></path></g><g opacity="1" transform="matrix(1,0,0,1,261.8879699707031,279.031005859375)"><path fill="rgb(61,169,214)" fill-opacity="1" d=" M4.645999908447266,-1.406000018119812 C2.0209999084472656,-1.781000018119812 -6.164999961853027,-1.0420000553131104 -3.61899995803833,7.203999996185303"></path><path stroke-linecap="round" stroke-linejoin="round" fill-opacity="0" stroke="rgb(24,105,141)" stroke-opacity="1" stroke-width="6" d=" M4.645999908447266,-1.406000018119812 C2.0209999084472656,-1.781000018119812 -6.164999961853027,-1.0420000553131104 -3.61899995803833,7.203999996185303"></path></g><g opacity="1" transform="matrix(1,0,0,1,264.3975524902344,294.18798828125)"><path fill="rgb(61,169,214)" fill-opacity="1" d=" M4.781000137329102,-1.437999963760376 C2.7809998989105225,-1.812999963760376 -5.525000095367432,-1.1670000553131104 -4.0269999504089355,4.9079999923706055"></path><path stroke-linecap="round" stroke-linejoin="round" fill-opacity="0" stroke="rgb(24,105,141)" stroke-opacity="1" stroke-width="6" d=" M4.781000137329102,-1.437999963760376 C2.7809998989105225,-1.812999963760376 -5.525000095367432,-1.1670000553131104 -4.0269999504089355,4.9079999923706055"></path></g><g opacity="1" transform="matrix(1,0,0,1,266.6871337890625,307.656005859375)"><path fill="rgb(61,169,214)" fill-opacity="1" d=" M-4.706999778747559,-1.9229999780654907 C-2.749000072479248,1.7039999961853027 0.9269999861717224,1.281999945640564 4.802000045776367,-0.4690000116825104"></path><path stroke-linecap="round" stroke-linejoin="round" fill-opacity="0" stroke="rgb(24,105,141)" stroke-opacity="1" stroke-width="6" d=" M-4.706999778747559,-1.9229999780654907 C-2.749000072479248,1.7039999961853027 0.9269999861717224,1.281999945640564 4.802000045776367,-0.4690000116825104"></path></g><g opacity="1" transform="matrix(1,0,0,1,269.06793212890625,318.843994140625)"><path fill="rgb(61,169,214)" fill-opacity="1" d=" M-4.111999988555908,-4.466000080108643 C-3.135999917984009,0.6060000061988831 0.4339999854564667,1.9539999961853027 3.1559998989105225,1.281000018119812"></path><path stroke-linecap="round" stroke-linejoin="round" fill-opacity="0" stroke="rgb(24,105,141)" stroke-opacity="1" stroke-width="6" d=" M-4.111999988555908,-4.466000080108643 C-3.135999917984009,0.6060000061988831 0.4339999854564667,1.9539999961853027 3.1559998989105225,1.281000018119812"></path></g><g opacity="1" transform="matrix(1,0,0,1,259.26434326171875,263.35400390625)"><path fill="rgb(61,169,214)" fill-opacity="1" d=" M-1.6230000257492065,8.524999618530273 C-4.8420000076293945,2.056999921798706 -0.29600000381469727,-4.056000232696533 3.25,-4.020999908447266"></path><path stroke-linecap="round" stroke-linejoin="round" fill-opacity="0" stroke="rgb(24,105,141)" stroke-opacity="1" stroke-width="6" d=" M-1.6230000257492065,8.524999618530273 C-4.8420000076293945,2.056999921798706 -0.29600000381469727,-4.056000232696533 3.25,-4.020999908447266"></path></g></g></g></svg>